<svg xmlns="http://www.w3.org/2000/svg" xmlns:xlink="http://www.w3.org/1999/xlink" width="558" height="665.944" viewBox="0 0 558 665.944">
  <defs>
    <filter id="shadow" x="0" y="0" width="558" height="665.944" filterUnits="userSpaceOnUse">
      <feOffset dy="10" input="SourceAlpha"/>
      <feGaussianBlur stdDeviation="10" result="blur"/>
      <feFlood flood-color="#484848" flood-opacity="0.2"/>
      <feComposite operator="in" in2="blur"/>
      <feComposite in="SourceGraphic"/>
    </filter>
    <clipPath id="clip-path">
      <path id="Path_52927" data-name="Path 52927" d="M.016,277.891h498v1.172H.016Zm0,0" transform="translate(-0.016 -277.891)" fill="#3e5477"/>
    </clipPath>
    <clipPath id="clip-path-4">
      <path id="Path_53041" data-name="Path 53041" d="M173,83h12.568v20.469H173Zm0,0" transform="translate(-173 -83)" fill="#fff"/>
    </clipPath>
    <clipPath id="clip-path-5">
      <path id="Path_53044" data-name="Path 53044" d="M278,163h3.59v2.666H278Zm0,0" transform="translate(-278 -163)" fill="#fff"/>
    </clipPath>
    <clipPath id="clip-path-6">
      <path id="Path_53050" data-name="Path 53050" d="M261,172h3.618v3.521H261Zm0,0" transform="translate(-261 -172)" fill="#fff"/>
    </clipPath>
    <clipPath id="clip-path-7">
      <path id="Path_52929" data-name="Path 52929" d="M.016,277.891h498v1.267H.016Zm0,0" transform="translate(-0.016 -277.891)" fill="#3e5477"/>
    </clipPath>
  </defs>
  <g id="Group_46753" data-name="Group 46753" transform="translate(-7223.013 9740.973)">
    <g id="Group_46752" data-name="Group 46752" transform="translate(6513.445 -9909.973)">
      <g transform="matrix(1, 0, 0, 1, 709.57, 169)" filter="url(#shadow)">
        <path id="shadow-2" data-name="shadow" d="M0,0H498V605.944H0Z" transform="translate(30 20)" fill="#fff"/>
      </g>
      <path id="Path_53095" data-name="Path 53095" d="M0,0H498V605.944H0Z" transform="translate(739.555 189)" fill="#fff"/>
      <path id="Path_53062" data-name="Path 53062" d="M.9,13H2.268V4.66H.9Zm3.432-1.836C4.332,12.508,5.064,13,6.24,13H7.32V11.86H6.48c-.576,0-.768-.2-.768-.7V7.5H7.32V6.388H5.712V4.744H4.332V6.388h-.78V7.5h.78Zm7.08-3.732A1.717,1.717,0,0,1,13.26,9.1H9.6A1.8,1.8,0,0,1,11.412,7.432Zm3.1,3.6H13.032a1.6,1.6,0,0,1-1.56.924A1.819,1.819,0,0,1,9.588,10.2H14.64a4.22,4.22,0,0,0,.048-.672A3.084,3.084,0,0,0,11.472,6.28a3.166,3.166,0,0,0-3.3,3.408,3.208,3.208,0,0,0,3.3,3.42A3.021,3.021,0,0,0,14.508,11.032ZM25.452,13h1.356V9.1A2.711,2.711,0,0,0,21.78,7.588,2.55,2.55,0,0,0,19.4,6.28a2.518,2.518,0,0,0-1.956.864V6.388H16.08V13h1.368V9.3a1.6,1.6,0,0,1,1.668-1.836c1,0,1.656.624,1.656,1.836V13h1.356V9.3A1.6,1.6,0,0,1,23.8,7.468c1,0,1.656.624,1.656,1.836Z" transform="translate(771.555 412)"/>
      <path id="Path_53084" data-name="Path 53084" d="M6.528,0h1.44L4.98-8.352H3.4L.408,0H1.836l.6-1.7H5.928ZM5.544-2.82H2.82L4.188-6.7ZM17.8,0h1.356V-3.9a2.584,2.584,0,0,0-2.724-2.82,2.589,2.589,0,0,0-2.3,1.308A2.55,2.55,0,0,0,11.748-6.72a2.518,2.518,0,0,0-1.956.864v-.756H8.424V0H9.792V-3.7A1.6,1.6,0,0,1,11.46-5.532c1,0,1.656.624,1.656,1.836V0h1.356V-3.7A1.6,1.6,0,0,1,16.14-5.532c1,0,1.656.624,1.656,1.836Zm8.556-3.312A3.261,3.261,0,0,0,22.98-6.72a3.261,3.261,0,0,0-3.372,3.408A3.224,3.224,0,0,0,22.92.108,3.312,3.312,0,0,0,26.352-3.312ZM21-3.312a1.97,1.97,0,0,1,1.956-2.22,2,2,0,0,1,1.992,2.22A2.037,2.037,0,0,1,22.92-1.08,1.956,1.956,0,0,1,21-3.312Zm11.856-3.3H31.488v3.684A1.6,1.6,0,0,1,29.82-1.092c-1,0-1.656-.624-1.656-1.836V-6.612H26.808v3.888A2.584,2.584,0,0,0,29.532.1a2.461,2.461,0,0,0,1.956-.888V0h1.368ZM38.508,0h1.356V-3.9a2.575,2.575,0,0,0-2.712-2.82,2.544,2.544,0,0,0-1.968.864v-.756H33.816V0h1.368V-3.7a1.6,1.6,0,0,1,1.668-1.836c1,0,1.656.624,1.656,1.836ZM40.98-1.836C40.98-.492,41.712,0,42.888,0h1.08V-1.14h-.84c-.576,0-.768-.2-.768-.7V-5.5h1.608V-6.612H42.36V-8.256H40.98v1.644H40.2V-5.5h.78Z" transform="translate(1161.555 425)"/>
      <path id="Path_52761" data-name="Path 52761" d="M0,0H440.444" transform="translate(771.556 487.502)" fill="none" stroke="#313131" stroke-width="0.5"/>
      <path id="Path_52762" data-name="Path 52762" d="M0,0H440.444" transform="translate(771.556 538.502)" fill="none" stroke="#313131" stroke-width="0.5"/>
      <path id="Path_52763" data-name="Path 52763" d="M0,0H440.444" transform="translate(771.556 592.081)" fill="none" stroke="#313131" stroke-width="0.5"/>
      <path id="Path_53063" data-name="Path 53063" d="M6.54,0H7.692L4.68-8.316H3.42L.4,0H1.548L2.22-1.86H5.868ZM5.556-2.748H2.532L4.044-6.972ZM9.012,0H10.1V-6.576H9.012Zm.564-7.644a.728.728,0,0,0,.72-.744.728.728,0,0,0-.72-.744.733.733,0,0,0-.744.744A.733.733,0,0,0,9.576-7.644Zm3.48,4.068c0-1.524.792-1.992,1.836-1.992h.288V-6.7a2.215,2.215,0,0,0-2.124,1.188V-6.576H11.964V0h1.092ZM19.644,0h1.092V-3.768h2.952v-.888H20.736v-2.82h3.636v-.888H19.644Zm7.14-3.576c0-1.524.792-1.992,1.836-1.992h.288V-6.7a2.215,2.215,0,0,0-2.124,1.188V-6.576H25.692V0h1.092Zm6.18-2.184A1.93,1.93,0,0,1,35.04-3.768H30.888A2.037,2.037,0,0,1,32.964-5.76Zm3.072,3.732H34.86A1.807,1.807,0,0,1,33.012-.816,2.067,2.067,0,0,1,30.876-2.88h5.256a5.919,5.919,0,0,0,.036-.66,3.014,3.014,0,0,0-3.156-3.144A3.129,3.129,0,0,0,29.76-3.3,3.168,3.168,0,0,0,33.012.108,2.957,2.957,0,0,0,36.036-2.028ZM37.608,0H38.7V-6.576H37.608Zm.564-7.644a.728.728,0,0,0,.72-.744.728.728,0,0,0-.72-.744.733.733,0,0,0-.744.744A.733.733,0,0,0,38.172-7.644Zm1.98,4.332a3.165,3.165,0,0,0,3.12,3.42A2.748,2.748,0,0,0,45.72-1.236V.144a1.952,1.952,0,0,1-2.04,2.148A2.042,2.042,0,0,1,41.58.96H40.5c.216,1.4,1.452,2.28,3.18,2.28a2.948,2.948,0,0,0,3.144-3.1v-6.72h-1.1v1.2a2.71,2.71,0,0,0-2.448-1.308A3.116,3.116,0,0,0,40.152-3.312ZM45.72-3.3A2.25,2.25,0,0,1,43.488-.852a2.252,2.252,0,0,1-2.22-2.46,2.22,2.22,0,0,1,2.22-2.424A2.253,2.253,0,0,1,45.72-3.3ZM48.672,0h1.092V-3.636c0-1.416.768-2.112,1.884-2.112s1.836.684,1.836,2.028V0h1.08V-3.876A2.537,2.537,0,0,0,51.936-6.7a2.474,2.474,0,0,0-2.172,1.068V-8.88H48.672Zm7.92-1.8c0,1.32.66,1.8,1.824,1.8H59.4V-.924h-.8c-.672,0-.912-.228-.912-.876V-5.676H59.4v-.9H57.684V-8.232H56.592v1.656H55.74v.9h.852Z" transform="translate(771.555 460)"/>
      <path id="Path_53081" data-name="Path 53081" d="M-50.292,1.044h.648V.072a2.432,2.432,0,0,0,2.472-2.364c0-1.668-1.284-2.016-2.472-2.316V-7.536a1.469,1.469,0,0,1,1.2,1.212h1.164A2.36,2.36,0,0,0-49.644-8.46v-1h-.648v1a2.374,2.374,0,0,0-2.484,2.316c0,1.656,1.284,2,2.484,2.316v3A1.452,1.452,0,0,1-51.6-2.172h-1.164A2.4,2.4,0,0,0-50.292.072Zm2.028-3.276a1.413,1.413,0,0,1-1.38,1.416V-3.648C-48.876-3.42-48.264-3.084-48.264-2.232ZM-51.66-6.2A1.314,1.314,0,0,1-50.292-7.56v2.772C-51.06-5.028-51.66-5.352-51.66-6.2Zm6.348-.288h1.068A1.594,1.594,0,0,1-42.5-7.908c1.044,0,1.6.576,1.6,1.4,0,1.008-.78,1.452-2.232,1.464h-.288v.912h.276c1.56,0,2.412.468,2.412,1.692A1.517,1.517,0,0,1-42.456-.864,1.8,1.8,0,0,1-44.388-2.5h-1.056a2.715,2.715,0,0,0,3,2.556C-40.632.06-39.7-1-39.7-2.34a2.113,2.113,0,0,0-1.692-2.232v-.06a1.961,1.961,0,0,0,1.536-1.98c0-1.248-.924-2.232-2.616-2.232A2.551,2.551,0,0,0-45.312-6.492Zm6.96,6.4h5.772v-.912h-4.128c1.548-1.26,3.876-3.1,3.876-5.256A2.441,2.441,0,0,0-35.52-8.832a2.658,2.658,0,0,0-2.8,2.808h1.056A1.715,1.715,0,0,1-35.508-7.9a1.465,1.465,0,0,1,1.6,1.68c0,1.776-2.16,3.5-4.44,5.34Zm6.9,0h5.772v-.912h-4.128c1.548-1.26,3.876-3.1,3.876-5.256A2.441,2.441,0,0,0-28.62-8.832a2.658,2.658,0,0,0-2.8,2.808h1.056A1.715,1.715,0,0,1-28.608-7.9a1.465,1.465,0,0,1,1.6,1.68c0,1.776-2.16,3.5-4.44,5.34Zm8.616-4.416A2.168,2.168,0,0,0-24.444-2.34c0,1.572,1.236,2.58,3.06,2.58S-18.3-.768-18.3-2.34a2.185,2.185,0,0,0-1.62-2.172A2.085,2.085,0,0,0-18.528-6.5c0-1.26-.972-2.3-2.856-2.3s-2.844,1.032-2.844,2.3A2.017,2.017,0,0,0-22.836-4.512Zm1.452-.36c-1.056,0-1.788-.588-1.788-1.488,0-1.02.72-1.536,1.788-1.536,1.092,0,1.8.528,1.8,1.524C-19.584-5.472-20.316-4.872-21.384-4.872Zm0,.84c1.14,0,2,.54,2,1.656,0,1.008-.768,1.7-2,1.7s-2.016-.684-2.016-1.7C-23.4-3.528-22.5-4.032-21.384-4.032ZM-15.6-.672a.728.728,0,0,0-.72-.744.733.733,0,0,0-.744.744.733.733,0,0,0,.744.744A.728.728,0,0,0-15.6-.672Zm1.272-3.756C-14.328-1.908-13.7,0-11.3,0s3.012-1.908,3.012-4.428c0-2.484-.624-4.38-3.012-4.38S-14.328-6.912-14.328-4.428Zm4.956,0C-9.372-2.556-9.6-1-11.3-1s-1.944-1.56-1.944-3.432c0-1.8.228-3.384,1.944-3.384S-9.372-6.228-9.372-4.428Zm2.58,0C-6.792-1.908-6.168,0-3.768,0S-.756-1.908-.756-4.428c0-2.484-.624-4.38-3.012-4.38S-6.792-6.912-6.792-4.428Zm4.956,0C-1.836-2.556-2.064-1-3.768-1s-1.944-1.56-1.944-3.432c0-1.8.228-3.384,1.944-3.384S-1.836-6.228-1.836-4.428Z" transform="translate(1205.555 461)"/>
      <path id="Path_53064" data-name="Path 53064" d="M3.528-8.364H.924V0h2.6c2.748,0,4.44-1.572,4.44-4.164S6.276-8.364,3.528-8.364ZM2.016-.9V-7.476H3.528A3.017,3.017,0,0,1,6.852-4.164,2.982,2.982,0,0,1,3.528-.9Zm13.44-2.4a3.21,3.21,0,0,0-3.324-3.384A3.216,3.216,0,0,0,8.808-3.3,3.192,3.192,0,0,0,12.084.108,3.261,3.261,0,0,0,15.456-3.3Zm-5.532,0a2.18,2.18,0,0,1,2.2-2.436A2.209,2.209,0,0,1,14.34-3.3,2.232,2.232,0,0,1,12.084-.852,2.166,2.166,0,0,1,9.924-3.3ZM26.2,0h1.08V-3.876A2.545,2.545,0,0,0,24.612-6.7a2.434,2.434,0,0,0-2.328,1.464A2.474,2.474,0,0,0,19.872-6.7,2.377,2.377,0,0,0,17.8-5.628v-.948H16.7V0H17.8V-3.624c0-1.416.756-2.124,1.86-2.124,1.08,0,1.8.684,1.8,2.028V0h1.08V-3.624c0-1.416.756-2.124,1.86-2.124,1.08,0,1.8.684,1.8,2.028Zm5.472-5.76a1.93,1.93,0,0,1,2.076,1.992H29.592A2.037,2.037,0,0,1,31.668-5.76ZM34.74-2.028H33.564A1.807,1.807,0,0,1,31.716-.816,2.067,2.067,0,0,1,29.58-2.88h5.256a5.919,5.919,0,0,0,.036-.66,3.014,3.014,0,0,0-3.156-3.144A3.129,3.129,0,0,0,28.464-3.3,3.168,3.168,0,0,0,31.716.108,2.957,2.957,0,0,0,34.74-2.028Zm6.108.24c-.048-2.352-3.864-1.5-3.864-3.06,0-.528.48-.912,1.284-.912A1.265,1.265,0,0,1,39.7-4.62h1.092A2.206,2.206,0,0,0,38.3-6.684c-1.464,0-2.412.828-2.412,1.836,0,2.448,3.888,1.6,3.888,3.06,0,.54-.48.972-1.344.972-.924,0-1.488-.48-1.548-1.116H35.76c.072,1.2,1.152,2.04,2.688,2.04C39.9.108,40.848-.708,40.848-1.788ZM42.432-1.8c0,1.32.66,1.8,1.824,1.8h.984V-.924h-.8c-.672,0-.912-.228-.912-.876V-5.676H45.24v-.9H43.524V-8.232H42.432v1.656H41.58v.9h.852ZM46.368,0H47.46V-6.576H46.368Zm.564-7.644a.728.728,0,0,0,.72-.744.728.728,0,0,0-.72-.744.733.733,0,0,0-.744.744A.733.733,0,0,0,46.932-7.644ZM48.72-3.3a3.132,3.132,0,0,0,3.2,3.408,2.925,2.925,0,0,0,3.036-2.22H53.784a1.764,1.764,0,0,1-1.86,1.3c-1.2,0-2.088-.852-2.088-2.484,0-1.608.888-2.46,2.088-2.46a1.792,1.792,0,0,1,1.86,1.3H54.96a2.858,2.858,0,0,0-3.036-2.22A3.124,3.124,0,0,0,48.72-3.3ZM64.668-2.28c0-3.1-4.512-1.752-4.512-3.912,0-.9.708-1.368,1.608-1.344a1.515,1.515,0,0,1,1.62,1.212h1.2a2.5,2.5,0,0,0-2.772-2.148c-1.656,0-2.772.936-2.772,2.316,0,3.108,4.524,1.668,4.524,3.924,0,.792-.624,1.392-1.68,1.392a1.549,1.549,0,0,1-1.728-1.392H58.992C59.016-.852,60.2.084,61.884.084A2.506,2.506,0,0,0,64.668-2.28ZM66.084,0h1.092V-3.636c0-1.416.768-2.112,1.884-2.112S70.9-5.064,70.9-3.72V0h1.08V-3.876A2.537,2.537,0,0,0,69.348-6.7a2.474,2.474,0,0,0-2.172,1.068V-8.88H66.084Zm7.488,0h1.092V-6.576H73.572Zm.564-7.644a.728.728,0,0,0,.72-.744.728.728,0,0,0-.72-.744.733.733,0,0,0-.744.744A.733.733,0,0,0,74.136-7.644Zm3.288,2.28V-6.576H76.332v9.7h1.092V-1.212a2.845,2.845,0,0,0,2.46,1.32A3.165,3.165,0,0,0,83-3.312a3.116,3.116,0,0,0-3.12-3.372A2.778,2.778,0,0,0,77.424-5.364Zm4.464,2.052a2.254,2.254,0,0,1-2.232,2.46A2.257,2.257,0,0,1,77.424-3.3a2.26,2.26,0,0,1,2.232-2.436A2.223,2.223,0,0,1,81.888-3.312Zm3.456-2.052V-6.576H84.252v9.7h1.092V-1.212A2.845,2.845,0,0,0,87.8.108a3.165,3.165,0,0,0,3.12-3.42A3.116,3.116,0,0,0,87.8-6.684,2.778,2.778,0,0,0,85.344-5.364Zm4.464,2.052a2.254,2.254,0,0,1-2.232,2.46A2.257,2.257,0,0,1,85.344-3.3a2.26,2.26,0,0,1,2.232-2.436A2.223,2.223,0,0,1,89.808-3.312ZM92.172,0h1.092V-6.576H92.172Zm.564-7.644a.728.728,0,0,0,.72-.744.728.728,0,0,0-.72-.744.733.733,0,0,0-.744.744A.733.733,0,0,0,92.736-7.644ZM99.744,0h1.08V-3.876A2.551,2.551,0,0,0,98.136-6.7,2.429,2.429,0,0,0,96.024-5.64v-.936H94.932V0h1.092V-3.636c0-1.416.768-2.112,1.884-2.112s1.836.684,1.836,2.028Zm2.268-3.312a3.165,3.165,0,0,0,3.12,3.42,2.748,2.748,0,0,0,2.448-1.344V.144a1.952,1.952,0,0,1-2.04,2.148A2.042,2.042,0,0,1,103.44.96h-1.08c.216,1.4,1.452,2.28,3.18,2.28a2.948,2.948,0,0,0,3.144-3.1v-6.72h-1.1v1.2a2.71,2.71,0,0,0-2.448-1.308A3.116,3.116,0,0,0,102.012-3.312Zm5.568.012a2.25,2.25,0,0,1-2.232,2.448,2.252,2.252,0,0,1-2.22-2.46,2.22,2.22,0,0,1,2.22-2.424A2.253,2.253,0,0,1,107.58-3.3Zm11.208,1.02c0-3.1-4.512-1.752-4.512-3.912,0-.9.708-1.368,1.608-1.344a1.515,1.515,0,0,1,1.62,1.212h1.2a2.5,2.5,0,0,0-2.772-2.148c-1.656,0-2.772.936-2.772,2.316,0,3.108,4.524,1.668,4.524,3.924,0,.792-.624,1.392-1.68,1.392a1.549,1.549,0,0,1-1.728-1.392h-1.164C113.136-.852,114.324.084,116,.084A2.506,2.506,0,0,0,118.788-2.28ZM123-5.76a1.93,1.93,0,0,1,2.076,1.992h-4.152A2.037,2.037,0,0,1,123-5.76Zm3.072,3.732H124.9a1.807,1.807,0,0,1-1.848,1.212,2.067,2.067,0,0,1-2.136-2.064h5.256a5.919,5.919,0,0,0,.036-.66,3.014,3.014,0,0,0-3.156-3.144A3.129,3.129,0,0,0,119.8-3.3,3.168,3.168,0,0,0,123.048.108,2.957,2.957,0,0,0,126.072-2.028Zm2.472-1.548c0-1.524.792-1.992,1.836-1.992h.288V-6.7a2.215,2.215,0,0,0-2.124,1.188V-6.576h-1.092V0h1.092Zm2.412-3L133.536,0h1.272l2.58-6.576h-1.164l-2.04,5.568-2.052-5.568ZM138.276,0h1.092V-6.576h-1.092Zm.564-7.644a.728.728,0,0,0,.72-.744.728.728,0,0,0-.72-.744.733.733,0,0,0-.744.744A.733.733,0,0,0,138.84-7.644ZM140.628-3.3a3.132,3.132,0,0,0,3.2,3.408,2.925,2.925,0,0,0,3.036-2.22h-1.176a1.764,1.764,0,0,1-1.86,1.3c-1.2,0-2.088-.852-2.088-2.484,0-1.608.888-2.46,2.088-2.46a1.792,1.792,0,0,1,1.86,1.3h1.176a2.858,2.858,0,0,0-3.036-2.22A3.124,3.124,0,0,0,140.628-3.3Zm10.3-2.46A1.93,1.93,0,0,1,153-3.768h-4.152A2.037,2.037,0,0,1,150.924-5.76ZM154-2.028H152.82a1.807,1.807,0,0,1-1.848,1.212,2.067,2.067,0,0,1-2.136-2.064h5.256a5.919,5.919,0,0,0,.036-.66,3.014,3.014,0,0,0-3.156-3.144A3.129,3.129,0,0,0,147.72-3.3,3.168,3.168,0,0,0,150.972.108,2.957,2.957,0,0,0,154-2.028Zm6.108.24c-.048-2.352-3.864-1.5-3.864-3.06,0-.528.48-.912,1.284-.912a1.265,1.265,0,0,1,1.428,1.14h1.092a2.206,2.206,0,0,0-2.484-2.064c-1.464,0-2.412.828-2.412,1.836,0,2.448,3.888,1.6,3.888,3.06,0,.54-.48.972-1.344.972-.924,0-1.488-.48-1.548-1.116h-1.128c.072,1.2,1.152,2.04,2.688,2.04C159.156.108,160.1-.708,160.1-1.788Z" transform="translate(771.555 511)"/>
      <path id="Path_53082" data-name="Path 53082" d="M-32.268,1.044h.648V.072a2.432,2.432,0,0,0,2.472-2.364c0-1.668-1.284-2.016-2.472-2.316V-7.536a1.469,1.469,0,0,1,1.2,1.212h1.164A2.36,2.36,0,0,0-31.62-8.46v-1h-.648v1a2.374,2.374,0,0,0-2.484,2.316c0,1.656,1.284,2,2.484,2.316v3a1.452,1.452,0,0,1-1.308-1.344H-34.74A2.4,2.4,0,0,0-32.268.072Zm2.028-3.276A1.413,1.413,0,0,1-31.62-.816V-3.648C-30.852-3.42-30.24-3.084-30.24-2.232Zm-3.4-3.972A1.314,1.314,0,0,1-32.268-7.56v2.772C-33.036-5.028-33.636-5.352-33.636-6.2Zm6.492-2.484v4.9h1.032a1.86,1.86,0,0,1,1.8-1.14,1.732,1.732,0,0,1,1.9,1.956A1.825,1.825,0,0,1-24.324-.9a1.824,1.824,0,0,1-1.932-1.452h-1.068A2.757,2.757,0,0,0-24.336.024,2.767,2.767,0,0,0-21.372-3a2.619,2.619,0,0,0-2.784-2.868,2.513,2.513,0,0,0-1.98.876V-7.728h4.212v-.96ZM-19.248,0h1.1V-8.676H-20.4v1h1.152Zm4.032-.672a.728.728,0,0,0-.72-.744.733.733,0,0,0-.744.744.733.733,0,0,0,.744.744A.728.728,0,0,0-15.216-.672Zm1.08-3.756c0,2.52.624,4.428,3.024,4.428S-8.1-1.908-8.1-4.428c0-2.484-.624-4.38-3.012-4.38S-14.136-6.912-14.136-4.428Zm4.956,0C-9.18-2.556-9.408-1-11.112-1s-1.944-1.56-1.944-3.432c0-1.8.228-3.384,1.944-3.384S-9.18-6.228-9.18-4.428Zm2.388,0C-6.792-1.908-6.168,0-3.768,0S-.756-1.908-.756-4.428c0-2.484-.624-4.38-3.012-4.38S-6.792-6.912-6.792-4.428Zm4.956,0C-1.836-2.556-2.064-1-3.768-1s-1.944-1.56-1.944-3.432c0-1.8.228-3.384,1.944-3.384S-1.836-6.228-1.836-4.428Z" transform="translate(1205.555 512)"/>
      <path id="Path_53065" data-name="Path 53065" d="M5.4-5.9C5.4-4.968,4.86-4.3,3.624-4.3H2.016V-7.464H3.624C4.872-7.464,5.4-6.852,5.4-5.9ZM.924-8.364V0H2.016V-3.42h1.32L5.328,0H6.636l-2.1-3.5A2.359,2.359,0,0,0,6.528-5.9c0-1.368-.936-2.46-2.9-2.46ZM13.86-6.576H12.768v3.612c0,1.416-.756,2.112-1.884,2.112A1.764,1.764,0,0,1,9.048-2.868V-6.576H7.968v3.852A2.565,2.565,0,0,0,10.668.1a2.418,2.418,0,0,0,2.1-1.068V0H13.86Zm6.384,4.788c-.048-2.352-3.864-1.5-3.864-3.06,0-.528.48-.912,1.284-.912a1.265,1.265,0,0,1,1.428,1.14h1.092A2.206,2.206,0,0,0,17.7-6.684c-1.464,0-2.412.828-2.412,1.836,0,2.448,3.888,1.6,3.888,3.06,0,.54-.48.972-1.344.972-.924,0-1.488-.48-1.548-1.116H15.156c.072,1.2,1.152,2.04,2.688,2.04C19.3.108,20.244-.708,20.244-1.788ZM21.588,0H22.68V-3.636c0-1.416.768-2.112,1.884-2.112S26.4-5.064,26.4-3.72V0h1.08V-3.876A2.537,2.537,0,0,0,24.852-6.7,2.474,2.474,0,0,0,22.68-5.628V-8.88H21.588Zm13.1-8.364h-2.6V0h2.6c2.748,0,4.44-1.572,4.44-4.164S37.44-8.364,34.692-8.364ZM33.18-.9V-7.476h1.512a3.017,3.017,0,0,1,3.324,3.312A2.982,2.982,0,0,1,34.692-.9Zm10-4.86a1.93,1.93,0,0,1,2.076,1.992H41.1A2.037,2.037,0,0,1,43.176-5.76Zm3.072,3.732H45.072A1.807,1.807,0,0,1,43.224-.816,2.067,2.067,0,0,1,41.088-2.88h5.256a5.919,5.919,0,0,0,.036-.66,3.014,3.014,0,0,0-3.156-3.144A3.129,3.129,0,0,0,39.972-3.3,3.168,3.168,0,0,0,43.224.108,2.957,2.957,0,0,0,46.248-2.028ZM47.628,0H48.72V-8.88H47.628Zm2.76,0H51.48V-6.576H50.388Zm.564-7.644a.728.728,0,0,0,.72-.744.728.728,0,0,0-.72-.744.733.733,0,0,0-.744.744A.733.733,0,0,0,50.952-7.644Zm1.416,1.068L54.948,0H56.22L58.8-6.576H57.636L55.6-1.008,53.544-6.576Zm10.116.816A1.93,1.93,0,0,1,64.56-3.768H60.408A2.037,2.037,0,0,1,62.484-5.76Zm3.072,3.732H64.38A1.807,1.807,0,0,1,62.532-.816,2.067,2.067,0,0,1,60.4-2.88h5.256a5.919,5.919,0,0,0,.036-.66,3.014,3.014,0,0,0-3.156-3.144A3.129,3.129,0,0,0,59.28-3.3,3.168,3.168,0,0,0,62.532.108,2.957,2.957,0,0,0,65.556-2.028Zm2.472-1.548c0-1.524.792-1.992,1.836-1.992h.288V-6.7a2.215,2.215,0,0,0-2.124,1.188V-6.576H66.936V0h1.092Zm5.688,2.328L71.652-6.576H70.44l2.652,6.5L71.8,3.1h1.128l3.96-9.672H75.756Z" transform="translate(771.555 561)"/>
      <g id="Group_46722" data-name="Group 46722">
        <path id="Path_53067" data-name="Path 53067" d="M1.848-4.188A2.8,2.8,0,0,1,4.7-7.248,2.8,2.8,0,0,1,7.56-4.188,2.825,2.825,0,0,1,4.7-1.1,2.825,2.825,0,0,1,1.848-4.188Zm7.116,0A4.158,4.158,0,0,0,4.7-8.448a4.172,4.172,0,0,0-4.26,4.26A4.174,4.174,0,0,0,4.7.084,4.242,4.242,0,0,0,5.892-.072L7.356,1.512H9.1l-2-2.124A4.137,4.137,0,0,0,8.964-4.188Zm7.044-2.424H14.64v3.684a1.6,1.6,0,0,1-1.668,1.836c-1,0-1.656-.624-1.656-1.836V-6.612H9.96v3.888A2.584,2.584,0,0,0,12.684.1,2.461,2.461,0,0,0,14.64-.792V0h1.368Zm1.02,3.276a3.2,3.2,0,0,0,3.1,3.444A2.846,2.846,0,0,0,22.44-.984V0h1.38V-6.612H22.44v.96A2.814,2.814,0,0,0,20.148-6.72,3.147,3.147,0,0,0,17.028-3.336Zm5.412.024a2.054,2.054,0,0,1-2,2.232,2.083,2.083,0,0,1-2-2.256,2.029,2.029,0,0,1,2-2.2A2.05,2.05,0,0,1,22.44-3.312ZM29.988,0h1.356V-3.9a2.575,2.575,0,0,0-2.712-2.82,2.544,2.544,0,0,0-1.968.864v-.756H25.3V0h1.368V-3.7a1.6,1.6,0,0,1,1.668-1.836c1,0,1.656.624,1.656,1.836Zm2.988-1.836C32.976-.492,33.708,0,34.884,0h1.08V-1.14h-.84c-.576,0-.768-.2-.768-.7V-5.5h1.608V-6.612H34.356V-8.256h-1.38v1.644H32.2V-5.5h.78ZM36.9,0h1.368V-6.612H36.9Zm.7-7.488a.863.863,0,0,0,.864-.876A.863.863,0,0,0,37.6-9.24a.866.866,0,0,0-.876.876A.866.866,0,0,0,37.6-7.488ZM39.96-1.836C39.96-.492,40.692,0,41.868,0h1.08V-1.14h-.84c-.576,0-.768-.2-.768-.7V-5.5h1.608V-6.612H41.34V-8.256H39.96v1.644h-.78V-5.5h.78Zm6.528.264-1.86-5.04H43.1l2.6,6.5L44.364,3.108H45.78l4.056-9.72H48.42Z" transform="translate(935.555 425)"/>
        <g id="Group_46719" data-name="Group 46719" transform="translate(6)">
          <path id="Path_53068" data-name="Path 53068" d="M-18.948-4.512A2.168,2.168,0,0,0-20.556-2.34c0,1.572,1.236,2.58,3.06,2.58s3.084-1.008,3.084-2.58a2.185,2.185,0,0,0-1.62-2.172A2.085,2.085,0,0,0-14.64-6.5c0-1.26-.972-2.3-2.856-2.3S-20.34-7.776-20.34-6.5A2.017,2.017,0,0,0-18.948-4.512Zm1.452-.36c-1.056,0-1.788-.588-1.788-1.488,0-1.02.72-1.536,1.788-1.536,1.092,0,1.8.528,1.8,1.524C-15.7-5.472-16.428-4.872-17.5-4.872Zm0,.84c1.14,0,2,.54,2,1.656,0,1.008-.768,1.7-2,1.7s-2.016-.684-2.016-1.7C-19.512-3.528-18.612-4.032-17.5-4.032Zm4.344-.4c0,2.52.624,4.428,3.024,4.428s3.012-1.908,3.012-4.428c0-2.484-.624-4.38-3.012-4.38S-13.152-6.912-13.152-4.428Zm4.956,0C-8.2-2.556-8.424-1-10.128-1s-1.944-1.56-1.944-3.432c0-1.8.228-3.384,1.944-3.384S-8.2-6.228-8.2-4.428Zm2.04-4.224v.936h4.632L-4.908,0h1.1L-.468-7.824v-.828Z" transform="translate(979.555 461)"/>
          <path id="Path_53069" data-name="Path 53069" d="M-11.744,0h.728V-1.936L-9.3,0H-8.3l-2.072-2.2,2.064-2.184H-9.328L-11.016-2.44V-5.92h-.728ZM-1.3,0h.72V-2.584a1.7,1.7,0,0,0-1.776-1.88A1.623,1.623,0,0,0-3.9-3.488a1.65,1.65,0,0,0-1.608-.976A1.585,1.585,0,0,0-6.9-3.752v-.632h-.728V0H-6.9V-2.416c0-.944.5-1.416,1.24-1.416.72,0,1.2.456,1.2,1.352V0h.72V-2.416c0-.944.5-1.416,1.24-1.416.72,0,1.2.456,1.2,1.352Z" transform="translate(979.555 475)"/>
        </g>
        <g id="Group_46720" data-name="Group 46720" transform="translate(6)">
          <text id="_03" data-name="03" transform="translate(979.555 512)" font-size="12" font-family="Poppins-Regular, Poppins" letter-spacing="-0.016em"><tspan x="-14.412" y="0">03</tspan></text>
        </g>
        <g id="Group_46721" data-name="Group 46721" transform="translate(6)">
          <text id="_01" data-name="01" transform="translate(979.555 562)" font-size="12" font-family="Poppins-Regular, Poppins" letter-spacing="-0.016em"><tspan x="-11.184" y="0">01</tspan></text>
        </g>
        <path id="Path_53070" data-name="Path 53070" d="M-33.456-3.576v-.808h-.728V2.08h.728V-.808a1.9,1.9,0,0,0,1.64.88,2.11,2.11,0,0,0,2.08-2.28,2.078,2.078,0,0,0-2.08-2.248A1.852,1.852,0,0,0-33.456-3.576Zm2.976,1.368a1.5,1.5,0,0,1-1.488,1.64A1.5,1.5,0,0,1-33.456-2.2a1.507,1.507,0,0,1,1.488-1.624A1.482,1.482,0,0,1-30.48-2.208Zm1.3,0A2.108,2.108,0,0,0-27.1.072a1.831,1.831,0,0,0,1.64-.888V0h.736V-4.384h-.736v.8A1.819,1.819,0,0,0-27.1-4.456,2.078,2.078,0,0,0-29.176-2.208Zm3.712.008A1.5,1.5,0,0,1-26.952-.568a1.5,1.5,0,0,1-1.48-1.64,1.48,1.48,0,0,1,1.48-1.616A1.5,1.5,0,0,1-25.464-2.2Zm1.568,0A2.088,2.088,0,0,0-21.76.072a1.95,1.95,0,0,0,2.024-1.48h-.784a1.176,1.176,0,0,1-1.24.864c-.8,0-1.392-.568-1.392-1.656,0-1.072.592-1.64,1.392-1.64a1.194,1.194,0,0,1,1.24.864h.784a1.905,1.905,0,0,0-2.024-1.48A2.083,2.083,0,0,0-23.9-2.2Zm5,2.2h.728V-1.936L-16.448,0h.992l-2.072-2.2,2.064-2.184H-16.48L-18.168-2.44V-5.92H-18.9Zm3.72-2.208A2.108,2.108,0,0,0-13.1.072a1.831,1.831,0,0,0,1.64-.888V0h.736V-4.384h-.736v.8A1.819,1.819,0,0,0-13.1-4.456,2.078,2.078,0,0,0-15.176-2.208Zm3.712.008A1.5,1.5,0,0,1-12.952-.568a1.5,1.5,0,0,1-1.48-1.64,1.48,1.48,0,0,1,1.48-1.616A1.5,1.5,0,0,1-11.464-2.2ZM-9.9-2.208A2.11,2.11,0,0,0-7.816.072a1.832,1.832,0,0,0,1.632-.9V.1a1.3,1.3,0,0,1-1.36,1.432A1.361,1.361,0,0,1-8.944.64h-.72a1.928,1.928,0,0,0,2.12,1.52A1.965,1.965,0,0,0-5.448.1v-4.48h-.736v.8a1.807,1.807,0,0,0-1.632-.872A2.078,2.078,0,0,0-9.9-2.208Zm3.712.008A1.5,1.5,0,0,1-7.672-.568a1.5,1.5,0,0,1-1.48-1.64,1.48,1.48,0,0,1,1.48-1.616A1.5,1.5,0,0,1-6.184-2.2Zm3.7-1.64A1.286,1.286,0,0,1-1.1-2.512H-3.864A1.358,1.358,0,0,1-2.48-3.84ZM-.432-1.352h-.784a1.2,1.2,0,0,1-1.232.808A1.378,1.378,0,0,1-3.872-1.92h3.5a3.946,3.946,0,0,0,.024-.44,2.01,2.01,0,0,0-2.1-2.1A2.086,2.086,0,0,0-4.616-2.2,2.112,2.112,0,0,0-2.448.072,1.971,1.971,0,0,0-.432-1.352Z" transform="translate(985.555 526)"/>
      </g>
      <g id="Group_46723" data-name="Group 46723">
        <path id="Path_53071" data-name="Path 53071" d="M5.328-5.844c0,.828-.48,1.416-1.548,1.416H2.268v-2.8H3.78C4.848-7.224,5.328-6.684,5.328-5.844ZM.9-8.34V0H2.268V-3.336H3.312L5.232,0H6.864L4.8-3.456A2.374,2.374,0,0,0,6.732-5.844c0-1.356-.972-2.5-2.952-2.5Zm6.948,5a3.2,3.2,0,0,0,3.1,3.444A2.846,2.846,0,0,0,13.26-.984V0h1.38V-6.612H13.26v.96A2.814,2.814,0,0,0,10.968-6.72,3.147,3.147,0,0,0,7.848-3.336Zm5.412.024a2.054,2.054,0,0,1-2,2.232,2.083,2.083,0,0,1-2-2.256,2.029,2.029,0,0,1,2-2.2A2.05,2.05,0,0,1,13.26-3.312Zm3.216,1.476C16.476-.492,17.208,0,18.384,0h1.08V-1.14h-.84c-.576,0-.768-.2-.768-.7V-5.5h1.608V-6.612H17.856V-8.256h-1.38v1.644H15.7V-5.5h.78Zm6.852-3.732A1.717,1.717,0,0,1,25.176-3.9h-3.66A1.8,1.8,0,0,1,23.328-5.568Zm3.1,3.6H24.948a1.6,1.6,0,0,1-1.56.924A1.819,1.819,0,0,1,21.5-2.8h5.052a4.22,4.22,0,0,0,.048-.672A3.084,3.084,0,0,0,23.388-6.72a3.166,3.166,0,0,0-3.3,3.408,3.208,3.208,0,0,0,3.3,3.42A3.021,3.021,0,0,0,26.424-1.968Z" transform="translate(1046.555 425)"/>
        <g id="Group_46620" data-name="Group 46620" transform="translate(0 -8.997)">
          <path id="Path_53073" data-name="Path 53073" d="M-26.5-3.576v-.808h-.728V2.08h.728V-.808a1.9,1.9,0,0,0,1.64.88,2.11,2.11,0,0,0,2.08-2.28,2.078,2.078,0,0,0-2.08-2.248A1.852,1.852,0,0,0-26.5-3.576Zm2.976,1.368a1.5,1.5,0,0,1-1.488,1.64A1.5,1.5,0,0,1-26.5-2.2a1.507,1.507,0,0,1,1.488-1.624A1.482,1.482,0,0,1-23.528-2.208ZM-19.96-3.84a1.286,1.286,0,0,1,1.384,1.328h-2.768A1.358,1.358,0,0,1-19.96-3.84Zm2.048,2.488H-18.7a1.2,1.2,0,0,1-1.232.808A1.378,1.378,0,0,1-21.352-1.92h3.5a3.946,3.946,0,0,0,.024-.44,2.01,2.01,0,0,0-2.1-2.1A2.086,2.086,0,0,0-22.1-2.2,2.112,2.112,0,0,0-19.928.072,1.971,1.971,0,0,0-17.912-1.352Zm1.776-1.032c0-1.016.528-1.328,1.224-1.328h.192v-.752a1.476,1.476,0,0,0-1.416.792v-.712h-.728V0h.728ZM-11.744,0h.728V-1.936L-9.3,0H-8.3l-2.072-2.2,2.064-2.184H-9.328L-11.016-2.44V-5.92h-.728ZM-1.3,0h.72V-2.584a1.7,1.7,0,0,0-1.776-1.88A1.623,1.623,0,0,0-3.9-3.488a1.65,1.65,0,0,0-1.608-.976A1.585,1.585,0,0,0-6.9-3.752v-.632h-.728V0H-6.9V-2.416c0-.944.5-1.416,1.24-1.416.72,0,1.2.456,1.2,1.352V0h.72V-2.416c0-.944.5-1.416,1.24-1.416.72,0,1.2.456,1.2,1.352Z" transform="translate(1073.555 483.997)"/>
          <path id="Path_53072" data-name="Path 53072" d="M-36.936,1.044h.648V.072a2.432,2.432,0,0,0,2.472-2.364c0-1.668-1.284-2.016-2.472-2.316V-7.536a1.469,1.469,0,0,1,1.2,1.212h1.164A2.36,2.36,0,0,0-36.288-8.46v-1h-.648v1A2.374,2.374,0,0,0-39.42-6.144c0,1.656,1.284,2,2.484,2.316v3a1.452,1.452,0,0,1-1.308-1.344h-1.164A2.4,2.4,0,0,0-36.936.072Zm2.028-3.276a1.413,1.413,0,0,1-1.38,1.416V-3.648C-35.52-3.42-34.908-3.084-34.908-2.232ZM-38.3-6.2A1.314,1.314,0,0,1-36.936-7.56v2.772C-37.7-5.028-38.3-5.352-38.3-6.2Zm6.372,1.776c0,2.52.624,4.428,3.024,4.428S-25.9-1.908-25.9-4.428c0-2.484-.624-4.38-3.012-4.38S-31.932-6.912-31.932-4.428Zm4.956,0C-26.976-2.556-27.2-1-28.908-1s-1.944-1.56-1.944-3.432c0-1.8.228-3.384,1.944-3.384S-26.976-6.228-26.976-4.428ZM-20.22,0h1.08V-1.932h1.2V-2.88h-1.2V-8.592h-1.308L-24.66-2.76v.828h4.44ZM-23.4-2.88l3.228-4.572V-2.88Zm7.8,2.208a.728.728,0,0,0-.72-.744.733.733,0,0,0-.744.744.733.733,0,0,0,.744.744A.728.728,0,0,0-15.6-.672Zm1.272-3.756C-14.328-1.908-13.7,0-11.3,0s3.012-1.908,3.012-4.428c0-2.484-.624-4.38-3.012-4.38S-14.328-6.912-14.328-4.428Zm4.956,0C-9.372-2.556-9.6-1-11.3-1s-1.944-1.56-1.944-3.432c0-1.8.228-3.384,1.944-3.384S-9.372-6.228-9.372-4.428Zm2.58,0C-6.792-1.908-6.168,0-3.768,0S-.756-1.908-.756-4.428c0-2.484-.624-4.38-3.012-4.38S-6.792-6.912-6.792-4.428Zm4.956,0C-1.836-2.556-2.064-1-3.768-1s-1.944-1.56-1.944-3.432c0-1.8.228-3.384,1.944-3.384S-1.836-6.228-1.836-4.428Z" transform="translate(1073.555 469.997)"/>
        </g>
        <g id="Group_46621" data-name="Group 46621" transform="translate(0 42.003)">
          <path id="Path_53076" data-name="Path 53076" d="M-31.284,1.044h.648V.072a2.432,2.432,0,0,0,2.472-2.364c0-1.668-1.284-2.016-2.472-2.316V-7.536a1.469,1.469,0,0,1,1.2,1.212h1.164A2.36,2.36,0,0,0-30.636-8.46v-1h-.648v1a2.374,2.374,0,0,0-2.484,2.316c0,1.656,1.284,2,2.484,2.316v3a1.452,1.452,0,0,1-1.308-1.344h-1.164A2.4,2.4,0,0,0-31.284.072Zm2.028-3.276a1.413,1.413,0,0,1-1.38,1.416V-3.648C-29.868-3.42-29.256-3.084-29.256-2.232Zm-3.4-3.972A1.314,1.314,0,0,1-31.284-7.56v2.772C-32.052-5.028-32.652-5.352-32.652-6.2ZM-25.608,0h1.1V-8.676H-26.76v1h1.152Zm2.436-8.652v.936h4.632L-21.924,0h1.1l3.336-7.824v-.828Zm7.956,7.98a.728.728,0,0,0-.72-.744.733.733,0,0,0-.744.744.733.733,0,0,0,.744.744A.728.728,0,0,0-15.216-.672Zm1.08-3.756c0,2.52.624,4.428,3.024,4.428S-8.1-1.908-8.1-4.428c0-2.484-.624-4.38-3.012-4.38S-14.136-6.912-14.136-4.428Zm4.956,0C-9.18-2.556-9.408-1-11.112-1s-1.944-1.56-1.944-3.432c0-1.8.228-3.384,1.944-3.384S-9.18-6.228-9.18-4.428Zm2.388,0C-6.792-1.908-6.168,0-3.768,0S-.756-1.908-.756-4.428c0-2.484-.624-4.38-3.012-4.38S-6.792-6.912-6.792-4.428Zm4.956,0C-1.836-2.556-2.064-1-3.768-1s-1.944-1.56-1.944-3.432c0-1.8.228-3.384,1.944-3.384S-1.836-6.228-1.836-4.428Z" transform="translate(1073.555 469.997)"/>
        </g>
        <g id="Group_46622" data-name="Group 46622" transform="translate(0 92.003)">
          <path id="Path_53075" data-name="Path 53075" d="M-35.5,1.044h.648V.072a2.432,2.432,0,0,0,2.472-2.364c0-1.668-1.284-2.016-2.472-2.316V-7.536a1.469,1.469,0,0,1,1.2,1.212h1.164A2.36,2.36,0,0,0-34.848-8.46v-1H-35.5v1A2.374,2.374,0,0,0-37.98-6.144c0,1.656,1.284,2,2.484,2.316v3A1.452,1.452,0,0,1-36.8-2.172h-1.164A2.4,2.4,0,0,0-35.5.072Zm2.028-3.276a1.413,1.413,0,0,1-1.38,1.416V-3.648C-34.08-3.42-33.468-3.084-33.468-2.232Zm-3.4-3.972A1.314,1.314,0,0,1-35.5-7.56v2.772C-36.264-5.028-36.864-5.352-36.864-6.2Zm6.156-.288h1.068A1.594,1.594,0,0,1-27.9-7.908c1.044,0,1.6.576,1.6,1.4,0,1.008-.78,1.452-2.232,1.464h-.288v.912h.276c1.56,0,2.412.468,2.412,1.692A1.517,1.517,0,0,1-27.852-.864,1.8,1.8,0,0,1-29.784-2.5H-30.84a2.715,2.715,0,0,0,3,2.556c1.812,0,2.748-1.056,2.748-2.4a2.113,2.113,0,0,0-1.692-2.232v-.06a1.961,1.961,0,0,0,1.536-1.98c0-1.248-.924-2.232-2.616-2.232A2.551,2.551,0,0,0-30.708-6.492Zm7.212-2.2v4.9h1.032a1.86,1.86,0,0,1,1.8-1.14,1.732,1.732,0,0,1,1.9,1.956A1.825,1.825,0,0,1-20.676-.9a1.824,1.824,0,0,1-1.932-1.452h-1.068A2.757,2.757,0,0,0-20.688.024,2.767,2.767,0,0,0-17.724-3a2.619,2.619,0,0,0-2.784-2.868,2.513,2.513,0,0,0-1.98.876V-7.728h4.212v-.96Zm8.28,8.016a.728.728,0,0,0-.72-.744.733.733,0,0,0-.744.744.733.733,0,0,0,.744.744A.728.728,0,0,0-15.216-.672Zm1.08-3.756c0,2.52.624,4.428,3.024,4.428S-8.1-1.908-8.1-4.428c0-2.484-.624-4.38-3.012-4.38S-14.136-6.912-14.136-4.428Zm4.956,0C-9.18-2.556-9.408-1-11.112-1s-1.944-1.56-1.944-3.432c0-1.8.228-3.384,1.944-3.384S-9.18-6.228-9.18-4.428Zm2.388,0C-6.792-1.908-6.168,0-3.768,0S-.756-1.908-.756-4.428c0-2.484-.624-4.38-3.012-4.38S-6.792-6.912-6.792-4.428Zm4.956,0C-1.836-2.556-2.064-1-3.768-1s-1.944-1.56-1.944-3.432c0-1.8.228-3.384,1.944-3.384S-1.836-6.228-1.836-4.428Z" transform="translate(1073.555 469.997)"/>
        </g>
        <path id="Path_53074" data-name="Path 53074" d="M-49.712-3.576v-.808h-.728V2.08h.728V-.808a1.9,1.9,0,0,0,1.64.88,2.11,2.11,0,0,0,2.08-2.28,2.078,2.078,0,0,0-2.08-2.248A1.852,1.852,0,0,0-49.712-3.576Zm2.976,1.368a1.5,1.5,0,0,1-1.488,1.64A1.5,1.5,0,0,1-49.712-2.2a1.507,1.507,0,0,1,1.488-1.624A1.482,1.482,0,0,1-46.736-2.208Zm3.568-1.632a1.286,1.286,0,0,1,1.384,1.328h-2.768A1.358,1.358,0,0,1-43.168-3.84Zm2.048,2.488H-41.9a1.2,1.2,0,0,1-1.232.808A1.378,1.378,0,0,1-44.56-1.92h3.5a3.946,3.946,0,0,0,.024-.44,2.01,2.01,0,0,0-2.1-2.1A2.086,2.086,0,0,0-45.3-2.2,2.112,2.112,0,0,0-43.136.072,1.971,1.971,0,0,0-41.12-1.352Zm1.776-1.032c0-1.016.528-1.328,1.224-1.328h.192v-.752a1.476,1.476,0,0,0-1.416.792v-.712h-.728V0h.728Zm5.12-1.192v-.808h-.728V2.08h.728V-.808a1.9,1.9,0,0,0,1.64.88,2.11,2.11,0,0,0,2.08-2.28,2.078,2.078,0,0,0-2.08-2.248A1.852,1.852,0,0,0-34.224-3.576Zm2.976,1.368a1.5,1.5,0,0,1-1.488,1.64A1.5,1.5,0,0,1-34.224-2.2a1.507,1.507,0,0,1,1.488-1.624A1.482,1.482,0,0,1-31.248-2.208Zm1.432,0A2.108,2.108,0,0,0-27.744.072,1.831,1.831,0,0,0-26.1-.816V0h.736V-4.384H-26.1v.8a1.819,1.819,0,0,0-1.632-.872A2.078,2.078,0,0,0-29.816-2.208ZM-26.1-2.2A1.5,1.5,0,0,1-27.592-.568a1.5,1.5,0,0,1-1.48-1.64,1.48,1.48,0,0,1,1.48-1.616A1.5,1.5,0,0,1-26.1-2.2Zm1.7,0A2.088,2.088,0,0,0-22.272.072a1.95,1.95,0,0,0,2.024-1.48h-.784a1.176,1.176,0,0,1-1.24.864c-.8,0-1.392-.568-1.392-1.656,0-1.072.592-1.64,1.392-1.64a1.194,1.194,0,0,1,1.24.864h.784a1.905,1.905,0,0,0-2.024-1.48A2.083,2.083,0,0,0-24.408-2.2ZM-19.28,0h.728V-1.936L-16.832,0h.992l-2.072-2.2,2.064-2.184h-1.016L-18.552-2.44V-5.92h-.728Zm3.848-2.208A2.108,2.108,0,0,0-13.36.072a1.831,1.831,0,0,0,1.64-.888V0h.736V-4.384h-.736v.8a1.819,1.819,0,0,0-1.632-.872A2.078,2.078,0,0,0-15.432-2.208Zm3.712.008A1.5,1.5,0,0,1-13.208-.568a1.5,1.5,0,0,1-1.48-1.64,1.48,1.48,0,0,1,1.48-1.616A1.5,1.5,0,0,1-11.72-2.2Zm1.7-.008A2.11,2.11,0,0,0-7.944.072a1.832,1.832,0,0,0,1.632-.9V.1a1.3,1.3,0,0,1-1.36,1.432A1.361,1.361,0,0,1-9.072.64h-.72a1.928,1.928,0,0,0,2.12,1.52A1.965,1.965,0,0,0-5.576.1v-4.48h-.736v.8a1.807,1.807,0,0,0-1.632-.872A2.078,2.078,0,0,0-10.024-2.208Zm3.712.008A1.5,1.5,0,0,1-7.8-.568a1.5,1.5,0,0,1-1.48-1.64A1.48,1.48,0,0,1-7.8-3.824,1.5,1.5,0,0,1-6.312-2.2ZM-2.48-3.84A1.286,1.286,0,0,1-1.1-2.512H-3.864A1.358,1.358,0,0,1-2.48-3.84ZM-.432-1.352h-.784a1.2,1.2,0,0,1-1.232.808A1.378,1.378,0,0,1-3.872-1.92h3.5a3.946,3.946,0,0,0,.024-.44,2.01,2.01,0,0,0-2.1-2.1A2.086,2.086,0,0,0-4.616-2.2,2.112,2.112,0,0,0-2.448.072,1.971,1.971,0,0,0-.432-1.352Z" transform="translate(1073.555 526)"/>
      </g>
      <g id="Group_46724" data-name="Group 46724">
        <path id="Path_53077" data-name="Path 53077" d="M.468-7.224H2.7V0H4.068V-7.224h2.22V-8.34H.468Zm6.42,3.888A3.2,3.2,0,0,0,9.984.108,2.846,2.846,0,0,0,12.3-.984V0h1.38V-6.612H12.3v.96A2.814,2.814,0,0,0,10.008-6.72,3.147,3.147,0,0,0,6.888-3.336Zm5.412.024a2.054,2.054,0,0,1-2,2.232,2.083,2.083,0,0,1-2-2.256,2.029,2.029,0,0,1,2-2.2A2.05,2.05,0,0,1,12.3-3.312ZM18.576,0h1.548L17.988-3.348l2.136-3.264H18.7L17.352-4.368,15.924-6.612H14.376l2.136,3.36L14.376,0H15.8l1.344-2.244Z" transform="translate(1105.555 425)"/>
        <path id="Path_53078" data-name="Path 53078" d="M-24.384-4.428c0,2.52.624,4.428,3.024,4.428s3.012-1.908,3.012-4.428c0-2.484-.624-4.38-3.012-4.38S-24.384-6.912-24.384-4.428Zm4.956,0C-19.428-2.556-19.656-1-21.36-1S-23.3-2.556-23.3-4.428c0-1.8.228-3.384,1.944-3.384S-19.428-6.228-19.428-4.428ZM-15.6-.672a.728.728,0,0,0-.72-.744.733.733,0,0,0-.744.744.733.733,0,0,0,.744.744A.728.728,0,0,0-15.6-.672Zm1.272-3.756C-14.328-1.908-13.7,0-11.3,0s3.012-1.908,3.012-4.428c0-2.484-.624-4.38-3.012-4.38S-14.328-6.912-14.328-4.428Zm4.956,0C-9.372-2.556-9.6-1-11.3-1s-1.944-1.56-1.944-3.432c0-1.8.228-3.384,1.944-3.384S-9.372-6.228-9.372-4.428Zm2.58,0C-6.792-1.908-6.168,0-3.768,0S-.756-1.908-.756-4.428c0-2.484-.624-4.38-3.012-4.38S-6.792-6.912-6.792-4.428Zm4.956,0C-1.836-2.556-2.064-1-3.768-1s-1.944-1.56-1.944-3.432c0-1.8.228-3.384,1.944-3.384S-1.836-6.228-1.836-4.428Z" transform="translate(1125.555 461)"/>
        <path id="Path_53079" data-name="Path 53079" d="M-23.808-4.428c0,2.52.624,4.428,3.024,4.428s3.012-1.908,3.012-4.428c0-2.484-.624-4.38-3.012-4.38S-23.808-6.912-23.808-4.428Zm4.956,0C-18.852-2.556-19.08-1-20.784-1s-1.944-1.56-1.944-3.432c0-1.8.228-3.384,1.944-3.384S-18.852-6.228-18.852-4.428Zm3.636,3.756a.728.728,0,0,0-.72-.744.733.733,0,0,0-.744.744.733.733,0,0,0,.744.744A.728.728,0,0,0-15.216-.672Zm1.08-3.756c0,2.52.624,4.428,3.024,4.428S-8.1-1.908-8.1-4.428c0-2.484-.624-4.38-3.012-4.38S-14.136-6.912-14.136-4.428Zm4.956,0C-9.18-2.556-9.408-1-11.112-1s-1.944-1.56-1.944-3.432c0-1.8.228-3.384,1.944-3.384S-9.18-6.228-9.18-4.428Zm2.388,0C-6.792-1.908-6.168,0-3.768,0S-.756-1.908-.756-4.428c0-2.484-.624-4.38-3.012-4.38S-6.792-6.912-6.792-4.428Zm4.956,0C-1.836-2.556-2.064-1-3.768-1s-1.944-1.56-1.944-3.432c0-1.8.228-3.384,1.944-3.384S-1.836-6.228-1.836-4.428Z" transform="translate(1125.555 512)"/>
        <path id="Path_53080" data-name="Path 53080" d="M-23.808-4.428c0,2.52.624,4.428,3.024,4.428s3.012-1.908,3.012-4.428c0-2.484-.624-4.38-3.012-4.38S-23.808-6.912-23.808-4.428Zm4.956,0C-18.852-2.556-19.08-1-20.784-1s-1.944-1.56-1.944-3.432c0-1.8.228-3.384,1.944-3.384S-18.852-6.228-18.852-4.428Zm3.636,3.756a.728.728,0,0,0-.72-.744.733.733,0,0,0-.744.744.733.733,0,0,0,.744.744A.728.728,0,0,0-15.216-.672Zm1.08-3.756c0,2.52.624,4.428,3.024,4.428S-8.1-1.908-8.1-4.428c0-2.484-.624-4.38-3.012-4.38S-14.136-6.912-14.136-4.428Zm4.956,0C-9.18-2.556-9.408-1-11.112-1s-1.944-1.56-1.944-3.432c0-1.8.228-3.384,1.944-3.384S-9.18-6.228-9.18-4.428Zm2.388,0C-6.792-1.908-6.168,0-3.768,0S-.756-1.908-.756-4.428c0-2.484-.624-4.38-3.012-4.38S-6.792-6.912-6.792-4.428Zm4.956,0C-1.836-2.556-2.064-1-3.768-1s-1.944-1.56-1.944-3.432c0-1.8.228-3.384,1.944-3.384S-1.836-6.228-1.836-4.428Z" transform="translate(1125.555 562)"/>
      </g>
      <path id="Path_53083" data-name="Path 53083" d="M-35.5,1.044h.648V.072a2.432,2.432,0,0,0,2.472-2.364c0-1.668-1.284-2.016-2.472-2.316V-7.536a1.469,1.469,0,0,1,1.2,1.212h1.164A2.36,2.36,0,0,0-34.848-8.46v-1H-35.5v1A2.374,2.374,0,0,0-37.98-6.144c0,1.656,1.284,2,2.484,2.316v3A1.452,1.452,0,0,1-36.8-2.172h-1.164A2.4,2.4,0,0,0-35.5.072Zm2.028-3.276a1.413,1.413,0,0,1-1.38,1.416V-3.648C-34.08-3.42-33.468-3.084-33.468-2.232Zm-3.4-3.972A1.314,1.314,0,0,1-35.5-7.56v2.772C-36.264-5.028-36.864-5.352-36.864-6.2Zm6.156-.288h1.068A1.594,1.594,0,0,1-27.9-7.908c1.044,0,1.6.576,1.6,1.4,0,1.008-.78,1.452-2.232,1.464h-.288v.912h.276c1.56,0,2.412.468,2.412,1.692A1.517,1.517,0,0,1-27.852-.864,1.8,1.8,0,0,1-29.784-2.5H-30.84a2.715,2.715,0,0,0,3,2.556c1.812,0,2.748-1.056,2.748-2.4a2.113,2.113,0,0,0-1.692-2.232v-.06a1.961,1.961,0,0,0,1.536-1.98c0-1.248-.924-2.232-2.616-2.232A2.551,2.551,0,0,0-30.708-6.492Zm7.212-2.2v4.9h1.032a1.86,1.86,0,0,1,1.8-1.14,1.732,1.732,0,0,1,1.9,1.956A1.825,1.825,0,0,1-20.676-.9a1.824,1.824,0,0,1-1.932-1.452h-1.068A2.757,2.757,0,0,0-20.688.024,2.767,2.767,0,0,0-17.724-3a2.619,2.619,0,0,0-2.784-2.868,2.513,2.513,0,0,0-1.98.876V-7.728h4.212v-.96Zm8.28,8.016a.728.728,0,0,0-.72-.744.733.733,0,0,0-.744.744.733.733,0,0,0,.744.744A.728.728,0,0,0-15.216-.672Zm1.08-3.756c0,2.52.624,4.428,3.024,4.428S-8.1-1.908-8.1-4.428c0-2.484-.624-4.38-3.012-4.38S-14.136-6.912-14.136-4.428Zm4.956,0C-9.18-2.556-9.408-1-11.112-1s-1.944-1.56-1.944-3.432c0-1.8.228-3.384,1.944-3.384S-9.18-6.228-9.18-4.428Zm2.388,0C-6.792-1.908-6.168,0-3.768,0S-.756-1.908-.756-4.428c0-2.484-.624-4.38-3.012-4.38S-6.792-6.912-6.792-4.428Zm4.956,0C-1.836-2.556-2.064-1-3.768-1s-1.944-1.56-1.944-3.432c0-1.8.228-3.384,1.944-3.384S-1.836-6.228-1.836-4.428Z" transform="translate(1205.555 562)"/>
      <g id="Group_46473" data-name="Group 46473" transform="translate(739.555 312.492)" clip-path="url(#clip-path)">
        <path id="Path_52926" data-name="Path 52926" d="M-14.586,277.891H510.771v1.172H-14.586v-1.172" transform="translate(2.364 -277.891)" fill="#3e5477"/>
      </g>
      <g id="Group_46717" data-name="Group 46717" transform="translate(739.555 404.733)" clip-path="url(#clip-path)">
        <path id="Path_53002" data-name="Path 53002" d="M-14.586,277.891H510.771v1.172H-14.586v-1.172" transform="translate(2.364 -277.891)" fill="#3e5477"/>
      </g>
      <g id="Group_46718" data-name="Group 46718" transform="translate(739.555 435.336)" clip-path="url(#clip-path)">
        <path id="Path_53004" data-name="Path 53004" d="M-14.586,277.891H510.771v1.172H-14.586v-1.172" transform="translate(2.364 -277.891)" fill="#3e5477"/>
      </g>
      <path id="Path_52930" data-name="Path 52930" d="M-14.586,277.891h179.9v36.3h-179.9v-36.3" transform="translate(1040.193 455.109)" fill="#3e5477"/>
      <path id="Path_53093" data-name="Path 53093" d="M.7-10.836H4.05V0H6.1V-10.836h3.33V-12.51H.7ZM20.664-4.968a4.891,4.891,0,0,0-5.058-5.112,4.891,4.891,0,0,0-5.058,5.112A4.836,4.836,0,0,0,15.516.162,4.968,4.968,0,0,0,20.664-4.968Zm-8.028,0c0-2.25,1.386-3.33,2.934-3.33a3,3,0,0,1,2.988,3.33A3.055,3.055,0,0,1,15.516-1.62C13.968-1.62,12.636-2.718,12.636-4.968Zm10.1,2.214C22.734-.738,23.832,0,25.6,0h1.62V-1.71h-1.26c-.864,0-1.152-.306-1.152-1.044v-5.49h2.412V-9.918H24.8v-2.466h-2.07v2.466h-1.17v1.674h1.17ZM28.134-5c0,3.06,2.07,5.166,4.644,5.166a4.269,4.269,0,0,0,3.474-1.638V0h2.07V-9.918h-2.07v1.44a4.222,4.222,0,0,0-3.438-1.6C30.2-10.08,28.134-8.064,28.134-5Zm8.118.036A3.081,3.081,0,0,1,33.246-1.62,3.125,3.125,0,0,1,30.24-5,3.043,3.043,0,0,1,33.246-8.3,3.076,3.076,0,0,1,36.252-4.968ZM40.734,0h2.052V-13.32H40.734Z" transform="translate(1035.7 758)" fill="#fff"/>
      <path id="Path_53094" data-name="Path 53094" d="M-71.568,1.566h1.17V.09a3.786,3.786,0,0,0,3.762-3.654c0-2.538-1.962-3.024-3.762-3.456v-3.888a1.84,1.84,0,0,1,1.44,1.6h2.2c-.162-2.034-1.566-3.168-3.636-3.348v-1.458h-1.17v1.476c-2.232.2-3.78,1.584-3.78,3.6,0,2.538,1.98,3.042,3.78,3.492v3.96A1.794,1.794,0,0,1-73.152-3.33h-2.2c0,2.034,1.584,3.24,3.78,3.438Zm2.862-5.022A1.865,1.865,0,0,1-70.4-1.584V-5.238C-69.426-4.932-68.706-4.482-68.706-3.456ZM-73.26-9.144a1.742,1.742,0,0,1,1.692-1.818v3.636C-72.54-7.632-73.26-8.1-73.26-9.144Zm9.288-.738h2a2.039,2.039,0,0,1,2.232-1.782c1.4,0,2.142.756,2.142,1.89,0,1.4-1.134,1.944-2.988,1.962h-.486V-6.12h.468c2.142,0,3.258.594,3.258,2.322a2.058,2.058,0,0,1-2.286,2.16A2.317,2.317,0,0,1-62.172-3.8h-1.98c.126,2.574,2.052,3.87,4.536,3.87C-56.88.072-55.4-1.512-55.4-3.6a3.2,3.2,0,0,0-2.25-3.366v-.072a3.065,3.065,0,0,0,2.016-2.97c0-1.908-1.422-3.42-4.032-3.42C-62.064-13.428-63.828-12.15-63.972-9.882Zm10.4,0h2a2.039,2.039,0,0,1,2.232-1.782c1.4,0,2.142.756,2.142,1.89,0,1.4-1.134,1.944-2.988,1.962h-.486V-6.12h.468c2.142,0,3.258.594,3.258,2.322a2.058,2.058,0,0,1-2.286,2.16A2.317,2.317,0,0,1-51.768-3.8h-1.98c.126,2.574,2.052,3.87,4.536,3.87C-46.476.072-45-1.512-45-3.6a3.2,3.2,0,0,0-2.25-3.366v-.072a3.065,3.065,0,0,0,2.016-2.97c0-1.908-1.422-3.42-4.032-3.42C-51.66-13.428-53.424-12.15-53.568-9.882ZM-41.724,0h2.07V-13.122H-43.4v1.872h1.674Zm10.872,0h2.016V-2.736h1.674V-4.518h-1.674V-12.96H-31.32l-6.048,8.676v1.548h6.516ZM-35.01-4.518l4.248-6.354v6.354Zm11.646,3.33A1.3,1.3,0,0,0-24.66-2.5a1.3,1.3,0,0,0-1.314,1.314A1.3,1.3,0,0,0-24.66.126,1.3,1.3,0,0,0-23.364-1.188Zm1.656-5.544c0,3.816,1.008,6.7,4.68,6.7s4.68-2.88,4.68-6.7c0-3.744-1.008-6.624-4.68-6.624S-21.708-10.476-21.708-6.732Zm7.344,0c0,2.574-.27,4.824-2.664,4.824s-2.664-2.25-2.664-4.824c0-2.448.27-4.752,2.664-4.752S-14.364-9.18-14.364-6.732Zm3.906,0c0,3.816,1.008,6.7,4.68,6.7s4.68-2.88,4.68-6.7c0-3.744-1.008-6.624-4.68-6.624S-10.458-10.476-10.458-6.732Zm7.344,0c0,2.574-.27,4.824-2.664,4.824s-2.664-2.25-2.664-4.824c0-2.448.27-4.752,2.664-4.752S-3.114-9.18-3.114-6.732Z" transform="translate(1192.7 758)" fill="#fff"/>
      <path id="Path_53085" data-name="Path 53085" d="M6.36-2.28c0-3.1-4.512-1.752-4.512-3.912,0-.9.708-1.368,1.608-1.344a1.515,1.515,0,0,1,1.62,1.212h1.2A2.5,2.5,0,0,0,3.5-8.472c-1.656,0-2.772.936-2.772,2.316,0,3.108,4.524,1.668,4.524,3.924,0,.792-.624,1.392-1.68,1.392A1.549,1.549,0,0,1,1.848-2.232H.684C.708-.852,1.9.084,3.576.084A2.506,2.506,0,0,0,6.36-2.28Zm7.248-4.3H12.516v3.612c0,1.416-.756,2.112-1.884,2.112A1.764,1.764,0,0,1,8.8-2.868V-6.576H7.716v3.852A2.565,2.565,0,0,0,10.416.1a2.418,2.418,0,0,0,2.1-1.068V0h1.092Zm2.748,1.224V-8.88H15.264V0h1.092V-1.212a2.744,2.744,0,0,0,2.46,1.32,3.165,3.165,0,0,0,3.12-3.42,3.11,3.11,0,0,0-3.12-3.372A2.786,2.786,0,0,0,16.356-5.352Zm4.464,2.04a2.254,2.254,0,0,1-2.232,2.46A2.257,2.257,0,0,1,16.356-3.3a2.26,2.26,0,0,1,2.232-2.436A2.223,2.223,0,0,1,20.82-3.312Zm2.6,1.512c0,1.32.66,1.8,1.824,1.8h.984V-.924h-.8c-.672,0-.912-.228-.912-.876V-5.676h1.716v-.9H24.516V-8.232H23.424v1.656h-.852v.9h.852ZM33.6-3.3a3.21,3.21,0,0,0-3.324-3.384A3.216,3.216,0,0,0,26.952-3.3,3.192,3.192,0,0,0,30.228.108,3.261,3.261,0,0,0,33.6-3.3Zm-5.532,0a2.18,2.18,0,0,1,2.2-2.436A2.209,2.209,0,0,1,32.484-3.3,2.232,2.232,0,0,1,30.228-.852,2.166,2.166,0,0,1,28.068-3.3Zm7.02,1.5c0,1.32.66,1.8,1.824,1.8H37.9V-.924h-.8c-.672,0-.912-.228-.912-.876V-5.676H37.9v-.9H36.18V-8.232H35.088v1.656h-.852v.9h.852Zm3.528-1.512A3.163,3.163,0,0,0,41.724.108a2.746,2.746,0,0,0,2.46-1.332V0h1.1V-6.576h-1.1v1.2a2.729,2.729,0,0,0-2.448-1.308A3.116,3.116,0,0,0,38.616-3.312Zm5.568.012A2.25,2.25,0,0,1,41.952-.852a2.252,2.252,0,0,1-2.22-2.46,2.22,2.22,0,0,1,2.22-2.424A2.253,2.253,0,0,1,44.184-3.3ZM46.944,0h1.092V-8.88H46.944Zm3.828-.672a.728.728,0,0,0-.72-.744.733.733,0,0,0-.744.744.733.733,0,0,0,.744.744A.728.728,0,0,0,50.772-.672Zm0-5.136a.728.728,0,0,0-.72-.744.733.733,0,0,0-.744.744.733.733,0,0,0,.744.744A.728.728,0,0,0,50.772-5.808Z" transform="translate(1048.532 643.125)"/>
      <path id="Path_53086" data-name="Path 53086" d="M-46.032,1.044h.648V.072a2.432,2.432,0,0,0,2.472-2.364c0-1.668-1.284-2.016-2.472-2.316V-7.536a1.469,1.469,0,0,1,1.2,1.212h1.164A2.36,2.36,0,0,0-45.384-8.46v-1h-.648v1a2.374,2.374,0,0,0-2.484,2.316c0,1.656,1.284,2,2.484,2.316v3A1.452,1.452,0,0,1-47.34-2.172H-48.5A2.4,2.4,0,0,0-46.032.072ZM-44-2.232a1.413,1.413,0,0,1-1.38,1.416V-3.648C-44.616-3.42-44-3.084-44-2.232ZM-47.4-6.2A1.314,1.314,0,0,1-46.032-7.56v2.772C-46.8-5.028-47.4-5.352-47.4-6.2Zm6.156-.288h1.068a1.594,1.594,0,0,1,1.74-1.416c1.044,0,1.6.576,1.6,1.4,0,1.008-.78,1.452-2.232,1.464h-.288v.912h.276c1.56,0,2.412.468,2.412,1.692A1.517,1.517,0,0,1-38.388-.864,1.8,1.8,0,0,1-40.32-2.5h-1.056a2.715,2.715,0,0,0,3,2.556c1.812,0,2.748-1.056,2.748-2.4A2.113,2.113,0,0,0-37.32-4.572v-.06a1.961,1.961,0,0,0,1.536-1.98c0-1.248-.924-2.232-2.616-2.232A2.551,2.551,0,0,0-41.244-6.492Zm6.876,0H-33.3a1.594,1.594,0,0,1,1.74-1.416c1.044,0,1.6.576,1.6,1.4,0,1.008-.78,1.452-2.232,1.464h-.288v.912h.276c1.56,0,2.412.468,2.412,1.692A1.517,1.517,0,0,1-31.512-.864,1.8,1.8,0,0,1-33.444-2.5H-34.5A2.715,2.715,0,0,0-31.5.06c1.812,0,2.748-1.056,2.748-2.4a2.113,2.113,0,0,0-1.692-2.232v-.06a1.961,1.961,0,0,0,1.536-1.98c0-1.248-.924-2.232-2.616-2.232A2.551,2.551,0,0,0-34.368-6.492ZM-26.6,0h1.1V-8.676h-2.256v1H-26.6Zm6.96,0h1.08V-1.932h1.2V-2.88h-1.2V-8.592h-1.308L-24.084-2.76v.828h4.44Zm-3.18-2.88L-19.6-7.452V-2.88Zm7.608,2.208a.728.728,0,0,0-.72-.744.733.733,0,0,0-.744.744.733.733,0,0,0,.744.744A.728.728,0,0,0-15.216-.672Zm1.08-3.756c0,2.52.624,4.428,3.024,4.428S-8.1-1.908-8.1-4.428c0-2.484-.624-4.38-3.012-4.38S-14.136-6.912-14.136-4.428Zm4.956,0C-9.18-2.556-9.408-1-11.112-1s-1.944-1.56-1.944-3.432c0-1.8.228-3.384,1.944-3.384S-9.18-6.228-9.18-4.428Zm2.388,0C-6.792-1.908-6.168,0-3.768,0S-.756-1.908-.756-4.428c0-2.484-.624-4.38-3.012-4.38S-6.792-6.912-6.792-4.428Zm4.956,0C-1.836-2.556-2.064-1-3.768-1s-1.944-1.56-1.944-3.432c0-1.8.228-3.384,1.944-3.384S-1.836-6.228-1.836-4.428Z" transform="translate(1205.397 643.125)"/>
      <path id="Path_53087" data-name="Path 53087" d="M3.528-8.364H.924V0h2.6c2.748,0,4.44-1.572,4.44-4.164S6.276-8.364,3.528-8.364ZM2.016-.9V-7.476H3.528A3.017,3.017,0,0,1,6.852-4.164,2.982,2.982,0,0,1,3.528-.9Zm7.2.9h1.092V-6.576H9.216ZM9.78-7.644a.728.728,0,0,0,.72-.744.728.728,0,0,0-.72-.744.733.733,0,0,0-.744.744A.733.733,0,0,0,9.78-7.644ZM16.7-1.788c-.048-2.352-3.864-1.5-3.864-3.06,0-.528.48-.912,1.284-.912a1.265,1.265,0,0,1,1.428,1.14h1.092A2.206,2.206,0,0,0,14.16-6.684c-1.464,0-2.412.828-2.412,1.836,0,2.448,3.888,1.6,3.888,3.06,0,.54-.48.972-1.344.972-.924,0-1.488-.48-1.548-1.116H11.616c.072,1.2,1.152,2.04,2.688,2.04C15.756.108,16.7-.708,16.7-1.788ZM17.64-3.3a3.132,3.132,0,0,0,3.2,3.408,2.925,2.925,0,0,0,3.036-2.22H22.7a1.764,1.764,0,0,1-1.86,1.3c-1.2,0-2.088-.852-2.088-2.484,0-1.608.888-2.46,2.088-2.46a1.792,1.792,0,0,1,1.86,1.3H23.88a2.858,2.858,0,0,0-3.036-2.22A3.124,3.124,0,0,0,17.64-3.3Zm13.74,0a3.21,3.21,0,0,0-3.324-3.384A3.216,3.216,0,0,0,24.732-3.3,3.192,3.192,0,0,0,28.008.108,3.261,3.261,0,0,0,31.38-3.3Zm-5.532,0a2.18,2.18,0,0,1,2.2-2.436A2.209,2.209,0,0,1,30.264-3.3,2.232,2.232,0,0,1,28.008-.852,2.166,2.166,0,0,1,25.848-3.3ZM38.46-6.576H37.368v3.612c0,1.416-.756,2.112-1.884,2.112a1.764,1.764,0,0,1-1.836-2.016V-6.576h-1.08v3.852A2.565,2.565,0,0,0,35.268.1a2.418,2.418,0,0,0,2.1-1.068V0H38.46ZM44.928,0h1.08V-3.876A2.551,2.551,0,0,0,43.32-6.7,2.429,2.429,0,0,0,41.208-5.64v-.936H40.116V0h1.092V-3.636c0-1.416.768-2.112,1.884-2.112s1.836.684,1.836,2.028Zm2.916-1.8c0,1.32.66,1.8,1.824,1.8h.984V-.924h-.8c-.672,0-.912-.228-.912-.876V-5.676h1.716v-.9H48.936V-8.232H47.844v1.656h-.852v.9h.852Zm5,1.128a.728.728,0,0,0-.72-.744.733.733,0,0,0-.744.744.733.733,0,0,0,.744.744A.728.728,0,0,0,52.848-.672Zm0-5.136a.728.728,0,0,0-.72-.744.733.733,0,0,0-.744.744.733.733,0,0,0,.744.744A.728.728,0,0,0,52.848-5.808Z" transform="translate(1048.532 665.125)"/>
      <path id="Path_53088" data-name="Path 53088" d="M.408-7.476H2.7V0H3.792V-7.476h2.28v-.888H.408ZM6.816-3.312A3.163,3.163,0,0,0,9.924.108a2.746,2.746,0,0,0,2.46-1.332V0h1.1V-6.576h-1.1v1.2A2.729,2.729,0,0,0,9.936-6.684,3.116,3.116,0,0,0,6.816-3.312Zm5.568.012A2.25,2.25,0,0,1,10.152-.852a2.252,2.252,0,0,1-2.22-2.46,2.22,2.22,0,0,1,2.22-2.424A2.253,2.253,0,0,1,12.384-3.3ZM18.576,0h1.236L17.688-3.324,19.8-6.576H18.66L17.172-4.14l-1.56-2.436H14.376L16.5-3.264,14.376,0h1.14l1.5-2.448Zm3.192-.672a.728.728,0,0,0-.72-.744.733.733,0,0,0-.744.744.733.733,0,0,0,.744.744A.728.728,0,0,0,21.768-.672Zm0-5.136a.728.728,0,0,0-.72-.744.733.733,0,0,0-.744.744.733.733,0,0,0,.744.744A.728.728,0,0,0,21.768-5.808Z" transform="translate(1048.532 687.125)"/>
      <path id="Path_53089" data-name="Path 53089" d="M2.016-4.392V-7.464H3.624c1.248,0,1.776.576,1.776,1.548,0,.936-.528,1.524-1.776,1.524Zm4.5-1.524c0-1.368-.924-2.448-2.892-2.448H.924V0H2.016V-3.492H3.624C5.7-3.492,6.516-4.644,6.516-5.916Zm.756,2.6A3.163,3.163,0,0,0,10.38.108a2.746,2.746,0,0,0,2.46-1.332V0h1.1V-6.576h-1.1v1.2a2.729,2.729,0,0,0-2.448-1.308A3.116,3.116,0,0,0,7.272-3.312ZM12.84-3.3A2.25,2.25,0,0,1,10.608-.852a2.252,2.252,0,0,1-2.22-2.46,2.22,2.22,0,0,1,2.22-2.424A2.253,2.253,0,0,1,12.84-3.3ZM15.6,0h1.092V-6.576H15.6Zm.564-7.644a.728.728,0,0,0,.72-.744.728.728,0,0,0-.72-.744.733.733,0,0,0-.744.744A.733.733,0,0,0,16.164-7.644Zm1.788,4.332a3.165,3.165,0,0,0,3.12,3.42A2.7,2.7,0,0,0,23.52-1.236V0h1.1V-8.88h-1.1V-5.4a2.868,2.868,0,0,0-2.436-1.284A3.119,3.119,0,0,0,17.952-3.312ZM23.52-3.3A2.25,2.25,0,0,1,21.288-.852a2.252,2.252,0,0,1-2.22-2.46,2.22,2.22,0,0,1,2.22-2.424A2.253,2.253,0,0,1,23.52-3.3ZM27.348-.672a.728.728,0,0,0-.72-.744.733.733,0,0,0-.744.744.733.733,0,0,0,.744.744A.728.728,0,0,0,27.348-.672Zm0-5.136a.728.728,0,0,0-.72-.744.733.733,0,0,0-.744.744.733.733,0,0,0,.744.744A.728.728,0,0,0,27.348-5.808Z" transform="translate(1048.512 709.125)"/>
      <path id="Path_53090" data-name="Path 53090" d="M-28.62,1.044h.648V.072A2.432,2.432,0,0,0-25.5-2.292c0-1.668-1.284-2.016-2.472-2.316V-7.536a1.469,1.469,0,0,1,1.2,1.212h1.164A2.36,2.36,0,0,0-27.972-8.46v-1h-.648v1A2.374,2.374,0,0,0-31.1-6.144c0,1.656,1.284,2,2.484,2.316v3a1.452,1.452,0,0,1-1.308-1.344h-1.164A2.4,2.4,0,0,0-28.62.072Zm2.028-3.276a1.413,1.413,0,0,1-1.38,1.416V-3.648C-27.2-3.42-26.592-3.084-26.592-2.232Zm-3.4-3.972A1.314,1.314,0,0,1-28.62-7.56v2.772C-29.388-5.028-29.988-5.352-29.988-6.2Zm6.18,1.776c0,2.52.624,4.428,3.024,4.428s3.012-1.908,3.012-4.428c0-2.484-.624-4.38-3.012-4.38S-23.808-6.912-23.808-4.428Zm4.956,0C-18.852-2.556-19.08-1-20.784-1s-1.944-1.56-1.944-3.432c0-1.8.228-3.384,1.944-3.384S-18.852-6.228-18.852-4.428Zm3.636,3.756a.728.728,0,0,0-.72-.744.733.733,0,0,0-.744.744.733.733,0,0,0,.744.744A.728.728,0,0,0-15.216-.672Zm1.08-3.756c0,2.52.624,4.428,3.024,4.428S-8.1-1.908-8.1-4.428c0-2.484-.624-4.38-3.012-4.38S-14.136-6.912-14.136-4.428Zm4.956,0C-9.18-2.556-9.408-1-11.112-1s-1.944-1.56-1.944-3.432c0-1.8.228-3.384,1.944-3.384S-9.18-6.228-9.18-4.428Zm2.388,0C-6.792-1.908-6.168,0-3.768,0S-.756-1.908-.756-4.428c0-2.484-.624-4.38-3.012-4.38S-6.792-6.912-6.792-4.428Zm4.956,0C-1.836-2.556-2.064-1-3.768-1s-1.944-1.56-1.944-3.432c0-1.8.228-3.384,1.944-3.384S-1.836-6.228-1.836-4.428Z" transform="translate(1205.397 665.125)"/>
      <path id="Path_53091" data-name="Path 53091" d="M-28.62,1.044h.648V.072A2.432,2.432,0,0,0-25.5-2.292c0-1.668-1.284-2.016-2.472-2.316V-7.536a1.469,1.469,0,0,1,1.2,1.212h1.164A2.36,2.36,0,0,0-27.972-8.46v-1h-.648v1A2.374,2.374,0,0,0-31.1-6.144c0,1.656,1.284,2,2.484,2.316v3a1.452,1.452,0,0,1-1.308-1.344h-1.164A2.4,2.4,0,0,0-28.62.072Zm2.028-3.276a1.413,1.413,0,0,1-1.38,1.416V-3.648C-27.2-3.42-26.592-3.084-26.592-2.232Zm-3.4-3.972A1.314,1.314,0,0,1-28.62-7.56v2.772C-29.388-5.028-29.988-5.352-29.988-6.2Zm6.18,1.776c0,2.52.624,4.428,3.024,4.428s3.012-1.908,3.012-4.428c0-2.484-.624-4.38-3.012-4.38S-23.808-6.912-23.808-4.428Zm4.956,0C-18.852-2.556-19.08-1-20.784-1s-1.944-1.56-1.944-3.432c0-1.8.228-3.384,1.944-3.384S-18.852-6.228-18.852-4.428Zm3.636,3.756a.728.728,0,0,0-.72-.744.733.733,0,0,0-.744.744.733.733,0,0,0,.744.744A.728.728,0,0,0-15.216-.672Zm1.08-3.756c0,2.52.624,4.428,3.024,4.428S-8.1-1.908-8.1-4.428c0-2.484-.624-4.38-3.012-4.38S-14.136-6.912-14.136-4.428Zm4.956,0C-9.18-2.556-9.408-1-11.112-1s-1.944-1.56-1.944-3.432c0-1.8.228-3.384,1.944-3.384S-9.18-6.228-9.18-4.428Zm2.388,0C-6.792-1.908-6.168,0-3.768,0S-.756-1.908-.756-4.428c0-2.484-.624-4.38-3.012-4.38S-6.792-6.912-6.792-4.428Zm4.956,0C-1.836-2.556-2.064-1-3.768-1s-1.944-1.56-1.944-3.432c0-1.8.228-3.384,1.944-3.384S-1.836-6.228-1.836-4.428Z" transform="translate(1205.397 687.125)"/>
      <path id="Path_53092" data-name="Path 53092" d="M-28.62,1.044h.648V.072A2.432,2.432,0,0,0-25.5-2.292c0-1.668-1.284-2.016-2.472-2.316V-7.536a1.469,1.469,0,0,1,1.2,1.212h1.164A2.36,2.36,0,0,0-27.972-8.46v-1h-.648v1A2.374,2.374,0,0,0-31.1-6.144c0,1.656,1.284,2,2.484,2.316v3a1.452,1.452,0,0,1-1.308-1.344h-1.164A2.4,2.4,0,0,0-28.62.072Zm2.028-3.276a1.413,1.413,0,0,1-1.38,1.416V-3.648C-27.2-3.42-26.592-3.084-26.592-2.232Zm-3.4-3.972A1.314,1.314,0,0,1-28.62-7.56v2.772C-29.388-5.028-29.988-5.352-29.988-6.2Zm6.18,1.776c0,2.52.624,4.428,3.024,4.428s3.012-1.908,3.012-4.428c0-2.484-.624-4.38-3.012-4.38S-23.808-6.912-23.808-4.428Zm4.956,0C-18.852-2.556-19.08-1-20.784-1s-1.944-1.56-1.944-3.432c0-1.8.228-3.384,1.944-3.384S-18.852-6.228-18.852-4.428Zm3.636,3.756a.728.728,0,0,0-.72-.744.733.733,0,0,0-.744.744.733.733,0,0,0,.744.744A.728.728,0,0,0-15.216-.672Zm1.08-3.756c0,2.52.624,4.428,3.024,4.428S-8.1-1.908-8.1-4.428c0-2.484-.624-4.38-3.012-4.38S-14.136-6.912-14.136-4.428Zm4.956,0C-9.18-2.556-9.408-1-11.112-1s-1.944-1.56-1.944-3.432c0-1.8.228-3.384,1.944-3.384S-9.18-6.228-9.18-4.428Zm2.388,0C-6.792-1.908-6.168,0-3.768,0S-.756-1.908-.756-4.428c0-2.484-.624-4.38-3.012-4.38S-6.792-6.912-6.792-4.428Zm4.956,0C-1.836-2.556-2.064-1-3.768-1s-1.944-1.56-1.944-3.432c0-1.8.228-3.384,1.944-3.384S-1.836-6.228-1.836-4.428Z" transform="translate(1205.512 709.125)"/>
      <path id="Path_53066" data-name="Path 53066" d="M.34-6.23H2.25V0h.91V-6.23h1.9v-.74H.34ZM8.51-4.8a1.608,1.608,0,0,1,1.73,1.66H6.78A1.7,1.7,0,0,1,8.51-4.8Zm2.56,3.11h-.98A1.506,1.506,0,0,1,8.55-.68,1.723,1.723,0,0,1,6.77-2.4h4.38a4.933,4.933,0,0,0,.03-.55A2.512,2.512,0,0,0,8.55-5.57,2.608,2.608,0,0,0,5.84-2.75,2.64,2.64,0,0,0,8.55.09,2.464,2.464,0,0,0,11.07-1.69Zm2.22-1.29c0-1.27.66-1.66,1.53-1.66h.24v-.94a1.846,1.846,0,0,0-1.77.99v-.89h-.91V0h.91ZM24.02,0h.9V-3.23A2.121,2.121,0,0,0,22.7-5.58a2.029,2.029,0,0,0-1.94,1.22,2.062,2.062,0,0,0-2.01-1.22,1.981,1.981,0,0,0-1.73.89v-.79h-.91V0h.91V-3.02c0-1.18.63-1.77,1.55-1.77.9,0,1.5.57,1.5,1.69V0h.9V-3.02c0-1.18.63-1.77,1.55-1.77.9,0,1.5.57,1.5,1.69Zm6.33-1.49c-.04-1.96-3.22-1.25-3.22-2.55,0-.44.4-.76,1.07-.76a1.054,1.054,0,0,1,1.19.95h.91a1.839,1.839,0,0,0-2.07-1.72c-1.22,0-2.01.69-2.01,1.53,0,2.04,3.24,1.33,3.24,2.55,0,.45-.4.81-1.12.81-.77,0-1.24-.4-1.29-.93h-.94c.06,1,.96,1.7,2.24,1.7C29.56.09,30.35-.59,30.35-1.49ZM38.5-5.48a1.548,1.548,0,0,0-1.72-1.63,1.626,1.626,0,0,0-1.84,1.55,2,2,0,0,0,.6,1.4A2.278,2.278,0,0,0,33.9-2,2.166,2.166,0,0,0,36.34.12a3.122,3.122,0,0,0,2.4-1.04l.91.92h1.19L39.27-1.57c.14-.2.27-.4.4-.63l.82-1.42h-.98l-.68,1.14c-.06.1-.12.19-.18.28L36.57-4.29c-.49-.52-.72-.86-.72-1.27a.809.809,0,0,1,.89-.8.8.8,0,0,1,.85.88ZM36.34-.66a1.4,1.4,0,0,1-1.53-1.37c0-.7.41-1.22,1.28-1.55l2.05,2.06A2.289,2.289,0,0,1,36.34-.66Zm7.68-2.83A3.419,3.419,0,0,0,47.5.06a3.278,3.278,0,0,0,3.23-2.09H49.64A2.2,2.2,0,0,1,47.5-.73a2.528,2.528,0,0,1-2.55-2.76A2.531,2.531,0,0,1,47.5-6.26a2.193,2.193,0,0,1,2.14,1.31h1.09A3.281,3.281,0,0,0,47.5-7.06,3.436,3.436,0,0,0,44.02-3.49Zm13.26.74a2.675,2.675,0,0,0-2.77-2.82,2.68,2.68,0,0,0-2.77,2.82A2.66,2.66,0,0,0,54.47.09,2.717,2.717,0,0,0,57.28-2.75Zm-4.61,0A1.817,1.817,0,0,1,54.5-4.78a1.841,1.841,0,0,1,1.85,2.03A1.86,1.86,0,0,1,54.47-.71,1.8,1.8,0,0,1,52.67-2.75ZM62.49,0h.9V-3.23a2.126,2.126,0,0,0-2.24-2.35,2.024,2.024,0,0,0-1.76.88v-.78h-.91V0h.91V-3.03c0-1.18.64-1.76,1.57-1.76s1.53.57,1.53,1.69Zm2.05-2.76A2.637,2.637,0,0,0,67.14.09a2.251,2.251,0,0,0,2.04-1.12V0h.92V-7.4h-.92v2.9a2.39,2.39,0,0,0-2.03-1.07A2.6,2.6,0,0,0,64.54-2.76Zm4.64.01A1.875,1.875,0,0,1,67.32-.71a1.877,1.877,0,0,1-1.85-2.05,1.85,1.85,0,0,1,1.85-2.02A1.878,1.878,0,0,1,69.18-2.75ZM71.64,0h.91V-5.48h-.91Zm.47-6.37a.606.606,0,0,0,.6-.62.606.606,0,0,0-.6-.62.611.611,0,0,0-.62.62A.611.611,0,0,0,72.11-6.37ZM74.3-1.5c0,1.1.55,1.5,1.52,1.5h.82V-.77h-.67c-.56,0-.76-.19-.76-.73V-4.73h1.43v-.75H75.21V-6.86H74.3v1.38h-.71v.75h.71ZM77.74,0h.91V-5.48h-.91Zm.47-6.37a.606.606,0,0,0,.6-.62.606.606,0,0,0-.6-.62.611.611,0,0,0-.62.62A.611.611,0,0,0,78.21-6.37ZM85.4-2.75a2.675,2.675,0,0,0-2.77-2.82,2.68,2.68,0,0,0-2.77,2.82A2.66,2.66,0,0,0,82.59.09,2.717,2.717,0,0,0,85.4-2.75Zm-4.61,0a1.817,1.817,0,0,1,1.83-2.03,1.841,1.841,0,0,1,1.85,2.03A1.86,1.86,0,0,1,82.59-.71,1.8,1.8,0,0,1,80.79-2.75ZM90.61,0h.9V-3.23a2.126,2.126,0,0,0-2.24-2.35,2.024,2.024,0,0,0-1.76.88v-.78H86.6V0h.91V-3.03c0-1.18.64-1.76,1.57-1.76s1.53.57,1.53,1.69Zm6.33-1.49c-.04-1.96-3.22-1.25-3.22-2.55,0-.44.4-.76,1.07-.76a1.054,1.054,0,0,1,1.19.95h.91a1.839,1.839,0,0,0-2.07-1.72c-1.22,0-2.01.69-2.01,1.53,0,2.04,3.24,1.33,3.24,2.55,0,.45-.4.81-1.12.81-.77,0-1.24-.4-1.29-.93H92.7c.06,1,.96,1.7,2.24,1.7C96.15.09,96.94-.59,96.94-1.49Zm2.17.93a.606.606,0,0,0-.6-.62.611.611,0,0,0-.62.62.611.611,0,0,0,.62.62A.606.606,0,0,0,99.11-.56Zm0-4.28a.606.606,0,0,0-.6-.62.611.611,0,0,0-.62.62.611.611,0,0,0,.62.62A.606.606,0,0,0,99.11-4.84Z" transform="translate(771.555 615.421)"/>
      <g id="Group_46619" data-name="Group 46619" transform="translate(309.214 -8.151)">
        <g id="Group_43278" data-name="Group 43278" transform="translate(726.341 237.227)">
          <rect id="Rectangle_11121" data-name="Rectangle 11121" width="6.871" height="32.821" transform="translate(4.441)" fill="#3e5477"/>
          <rect id="Rectangle_11122" data-name="Rectangle 11122" width="2.581" height="32.821" fill="#3e5477"/>
          <rect id="Rectangle_11123" data-name="Rectangle 11123" width="188.952" height="32.821" transform="translate(13.196)" fill="#3e5477"/>
        </g>
        <g id="Group_43279" data-name="Group 43279" transform="translate(753.581 241.206)">
          <g id="Group_42645" data-name="Group 42645" transform="translate(0 0.409)">
            <g id="Group_42644" data-name="Group 42644" transform="translate(0 0)">
              <g id="Group_42643" data-name="Group 42643" transform="translate(0 0)">
                <path id="Path_52540" data-name="Path 52540" d="M3.016-25.422h5.5V-1.673h-5.5Zm0,0" transform="translate(-3.016 25.422)" fill="#fff"/>
              </g>
            </g>
          </g>
          <g id="Group_42648" data-name="Group 42648" transform="translate(12.828 0.409)">
            <g id="Group_42647" data-name="Group 42647" transform="translate(0 0)">
              <g id="Group_42646" data-name="Group 42646" transform="translate(0 0)">
                <path id="Path_52541" data-name="Path 52541" d="M24.809-25.422V-1.673H20.284L8.446-16.095V-1.673H3.016V-25.422H7.57L19.379-11V-25.422Zm0,0" transform="translate(-3.016 25.422)" fill="#fff"/>
              </g>
            </g>
          </g>
          <g id="Group_42651" data-name="Group 42651" transform="translate(38.822 0.409)">
            <g id="Group_42650" data-name="Group 42650" transform="translate(0 0)">
              <g id="Group_42649" data-name="Group 42649" transform="translate(0 0)">
                <path id="Path_52542" data-name="Path 52542" d="M25.639-25.422,15.349-1.673H9.919L-.328-25.422H5.613L12.838-8.461l7.328-16.961Zm0,0" transform="translate(0.328 25.422)" fill="#fff"/>
              </g>
            </g>
          </g>
          <g id="Group_42654" data-name="Group 42654" transform="translate(67.47 0)">
            <g id="Group_42653" data-name="Group 42653" transform="translate(0 0)">
              <g id="Group_42652" data-name="Group 42652" transform="translate(0)">
                <path id="Path_52543" data-name="Path 52543" d="M14.413-1.293A13.912,13.912,0,0,1,7.742-2.884,11.885,11.885,0,0,1,3.1-7.278a12.023,12.023,0,0,1-1.679-6.306A12,12,0,0,1,3.1-19.875a11.783,11.783,0,0,1,4.642-4.394,13.954,13.954,0,0,1,6.671-1.591,13.824,13.824,0,0,1,6.656,1.591,11.98,11.98,0,0,1,4.642,4.394,11.853,11.853,0,0,1,1.708,6.291,11.877,11.877,0,0,1-1.708,6.306,12.086,12.086,0,0,1-4.642,4.394A13.783,13.783,0,0,1,14.413-1.293Zm0-4.686a7.544,7.544,0,0,0,3.8-.963,6.839,6.839,0,0,0,2.671-2.7,7.981,7.981,0,0,0,.963-3.941,7.915,7.915,0,0,0-.963-3.926,6.863,6.863,0,0,0-2.671-2.7,7.48,7.48,0,0,0-3.8-.978,7.554,7.554,0,0,0-3.81.978,6.875,6.875,0,0,0-2.657,2.7,7.915,7.915,0,0,0-.963,3.926,7.981,7.981,0,0,0,.963,3.941,6.852,6.852,0,0,0,2.657,2.7A7.618,7.618,0,0,0,14.413-5.979Zm0,0" transform="translate(-1.422 25.859)" fill="#fff"/>
              </g>
            </g>
          </g>
          <g id="Group_42657" data-name="Group 42657" transform="translate(99.298 0.409)">
            <g id="Group_42656" data-name="Group 42656" transform="translate(0 0)">
              <g id="Group_42655" data-name="Group 42655" transform="translate(0 0)">
                <path id="Path_52544" data-name="Path 52544" d="M3.016-25.422h5.5V-1.673h-5.5Zm0,0" transform="translate(-3.016 25.422)" fill="#fff"/>
              </g>
            </g>
          </g>
          <g id="Group_42660" data-name="Group 42660" transform="translate(110.638 0)">
            <g id="Group_42659" data-name="Group 42659" transform="translate(0 0)">
              <g id="Group_42658" data-name="Group 42658" transform="translate(0)">
                <path id="Path_52545" data-name="Path 52545" d="M14.282-1.293A13.654,13.654,0,0,1,7.713-2.87,11.737,11.737,0,0,1,3.1-7.249a12.071,12.071,0,0,1-1.679-6.335A12.01,12.01,0,0,1,3.1-19.9a11.737,11.737,0,0,1,4.613-4.379,13.709,13.709,0,0,1,6.6-1.576,13.962,13.962,0,0,1,5.59,1.08,11.116,11.116,0,0,1,4.189,3.124L20.558-18.4a7.585,7.585,0,0,0-5.97-2.788,7.912,7.912,0,0,0-3.941.978,6.794,6.794,0,0,0-2.7,2.7,7.915,7.915,0,0,0-.963,3.926,7.981,7.981,0,0,0,.963,3.941,6.771,6.771,0,0,0,2.7,2.7,7.981,7.981,0,0,0,3.941.963A7.547,7.547,0,0,0,20.558-8.8l3.532,3.255a11.031,11.031,0,0,1-4.218,3.167A14.039,14.039,0,0,1,14.282-1.293Zm0,0" transform="translate(-1.422 25.859)" fill="#fff"/>
              </g>
            </g>
          </g>
          <g id="Group_42663" data-name="Group 42663" transform="translate(138.699 0.409)">
            <g id="Group_42662" data-name="Group 42662" transform="translate(0 0)">
              <g id="Group_42661" data-name="Group 42661" transform="translate(0 0)">
                <path id="Path_52546" data-name="Path 52546" d="M21.407-6.081v4.408H3.016V-25.422H20.97v4.408H8.475v5.153H19.51v4.277H8.475v5.5Zm0,0" transform="translate(-3.016 25.422)" fill="#fff"/>
              </g>
            </g>
          </g>
        </g>
      </g>
      <g id="Group_46484" data-name="Group 46484" transform="translate(771.555 264.896)">
        <path id="Path_53052" data-name="Path 53052" d="M.75,0H1.89V-6.95H.75ZM7.39,0H8.52V-3.25A2.146,2.146,0,0,0,6.26-5.6a2.12,2.12,0,0,0-1.64.72v-.63H3.48V0H4.62V-3.08A1.336,1.336,0,0,1,6.01-4.61c.83,0,1.38.52,1.38,1.53Zm1.8-5.51L11.28,0h1.36l2.1-5.51H13.53L11.97-1.02,10.41-5.51ZM20.76-2.76A2.717,2.717,0,0,0,17.95-5.6a2.717,2.717,0,0,0-2.81,2.84A2.686,2.686,0,0,0,17.9.09,2.76,2.76,0,0,0,20.76-2.76Zm-4.46,0a1.641,1.641,0,0,1,1.63-1.85,1.667,1.667,0,0,1,1.66,1.85A1.7,1.7,0,0,1,17.9-.9,1.63,1.63,0,0,1,16.3-2.76ZM21.89,0h1.14V-5.51H21.89Zm.58-6.24a.719.719,0,0,0,.72-.73.719.719,0,0,0-.72-.73.721.721,0,0,0-.73.73A.721.721,0,0,0,22.47-6.24Zm1.68,3.48A2.635,2.635,0,0,0,26.85.09a2.475,2.475,0,0,0,2.54-1.83H28.16a1.258,1.258,0,0,1-1.31.87c-.92,0-1.53-.68-1.53-1.89s.61-1.88,1.53-1.88a1.288,1.288,0,0,1,1.31.87h1.23A2.4,2.4,0,0,0,26.85-5.6,2.632,2.632,0,0,0,24.15-2.76ZM32.8-4.64a1.431,1.431,0,0,1,1.54,1.39H31.29A1.5,1.5,0,0,1,32.8-4.64Zm2.58,3H34.15a1.334,1.334,0,0,1-1.3.77,1.516,1.516,0,0,1-1.57-1.46h4.21a3.516,3.516,0,0,0,.04-.56A2.57,2.57,0,0,0,32.85-5.6,2.639,2.639,0,0,0,30.1-2.76,2.673,2.673,0,0,0,32.85.09,2.518,2.518,0,0,0,35.38-1.64Zm8.44-5.32v5.18L40.39-6.96H39.25V0h1.14V-5.19L43.82,0h1.14V-6.96Zm7.63,1.45H50.31v3.07A1.336,1.336,0,0,1,48.92-.91c-.83,0-1.38-.52-1.38-1.53V-5.51H46.41v3.24A2.153,2.153,0,0,0,48.68.08a2.051,2.051,0,0,0,1.63-.74V0h1.14ZM60.76,0h1.13V-3.25A2.153,2.153,0,0,0,59.62-5.6,2.157,2.157,0,0,0,57.7-4.51,2.125,2.125,0,0,0,55.72-5.6a2.1,2.1,0,0,0-1.63.72v-.63H52.95V0h1.14V-3.08a1.336,1.336,0,0,1,1.39-1.53c.83,0,1.38.52,1.38,1.53V0h1.13V-3.08a1.336,1.336,0,0,1,1.39-1.53c.83,0,1.38.52,1.38,1.53Zm3.72-4.69V-7.4H63.34V0h1.14V-.8A2.342,2.342,0,0,0,66.4.09a2.659,2.659,0,0,0,2.59-2.87A2.609,2.609,0,0,0,66.4-5.6,2.356,2.356,0,0,0,64.48-4.69Zm3.35,1.91A1.737,1.737,0,0,1,66.15-.9a1.718,1.718,0,0,1-1.67-1.86,1.714,1.714,0,0,1,1.67-1.85A1.692,1.692,0,0,1,67.83-2.78Zm4.61-1.86a1.431,1.431,0,0,1,1.54,1.39H70.93A1.5,1.5,0,0,1,72.44-4.64Zm2.58,3H73.79a1.334,1.334,0,0,1-1.3.77,1.516,1.516,0,0,1-1.57-1.46h4.21a3.517,3.517,0,0,0,.04-.56A2.57,2.57,0,0,0,72.49-5.6a2.639,2.639,0,0,0-2.75,2.84A2.673,2.673,0,0,0,72.49.09,2.518,2.518,0,0,0,75.02-1.64ZM77.43-2.9c0-1.17.52-1.52,1.36-1.52h.29V-5.6a1.8,1.8,0,0,0-1.65.89v-.8H76.29V0h1.14ZM81.31-.66a.719.719,0,0,0-.72-.73.721.721,0,0,0-.73.73.721.721,0,0,0,.73.73A.719.719,0,0,0,81.31-.66Zm0-4.2a.719.719,0,0,0-.72-.73.721.721,0,0,0-.73.73.721.721,0,0,0,.73.73A.719.719,0,0,0,81.31-4.86ZM85.81,0h1.15V-7.29H84.88v1.04h.93Zm2.72-3.74c0,2.12.56,3.72,2.6,3.72s2.6-1.6,2.6-3.72c0-2.08-.56-3.68-2.6-3.68S88.53-5.82,88.53-3.74Zm4.08,0c0,1.43-.15,2.68-1.48,2.68s-1.48-1.25-1.48-2.68c0-1.36.15-2.64,1.48-2.64S92.61-5.1,92.61-3.74Zm2.13-3.52v.97h3.7L95.63,0h1.15l2.78-6.41v-.85Zm5.78,1.77h1.11a1.133,1.133,0,0,1,1.24-.99c.78,0,1.19.42,1.19,1.05,0,.78-.63,1.08-1.66,1.09h-.27v.94h.26c1.19,0,1.81.33,1.81,1.29a1.144,1.144,0,0,1-1.27,1.2,1.287,1.287,0,0,1-1.41-1.2h-1.1A2.25,2.25,0,0,0,102.94.04,2.056,2.056,0,0,0,105.28-2a1.776,1.776,0,0,0-1.25-1.87v-.04a1.7,1.7,0,0,0,1.12-1.65c0-1.06-.79-1.9-2.24-1.9A2.139,2.139,0,0,0,100.52-5.49Z" transform="translate(0 8)"/>
        <path id="Path_53053" data-name="Path 53053" d="M2.94-6.97H.77V0H2.94c2.29,0,3.7-1.31,3.7-3.47S5.23-6.97,2.94-6.97ZM1.68-.75V-6.23H2.94A2.514,2.514,0,0,1,5.71-3.47,2.485,2.485,0,0,1,2.94-.75ZM7.5-2.76A2.636,2.636,0,0,0,10.09.09a2.289,2.289,0,0,0,2.05-1.11V0h.92V-5.48h-.92v1A2.274,2.274,0,0,0,10.1-5.57,2.6,2.6,0,0,0,7.5-2.76Zm4.64.01A1.875,1.875,0,0,1,10.28-.71,1.877,1.877,0,0,1,8.43-2.76a1.85,1.85,0,0,1,1.85-2.02A1.878,1.878,0,0,1,12.14-2.75ZM14.76-1.5c0,1.1.55,1.5,1.52,1.5h.82V-.77h-.67c-.56,0-.76-.19-.76-.73V-4.73H17.1v-.75H15.67V-6.86h-.91v1.38h-.71v.75h.71Zm5.72-3.3a1.608,1.608,0,0,1,1.73,1.66H18.75A1.7,1.7,0,0,1,20.48-4.8Zm2.56,3.11h-.98A1.506,1.506,0,0,1,20.52-.68,1.723,1.723,0,0,1,18.74-2.4h4.38a4.933,4.933,0,0,0,.03-.55,2.512,2.512,0,0,0-2.63-2.62,2.608,2.608,0,0,0-2.71,2.82A2.64,2.64,0,0,0,20.52.09,2.464,2.464,0,0,0,23.04-1.69Zm2.2,1.13a.606.606,0,0,0-.6-.62.611.611,0,0,0-.62.62.611.611,0,0,0,.62.62A.606.606,0,0,0,25.24-.56Zm0-4.28a.606.606,0,0,0-.6-.62.611.611,0,0,0-.62.62.611.611,0,0,0,.62.62A.606.606,0,0,0,25.24-4.84ZM29-3.69C29-1.59,29.52,0,31.52,0s2.51-1.59,2.51-3.69c0-2.07-.52-3.65-2.51-3.65S29-5.76,29-3.69Zm4.13,0c0,1.56-.19,2.86-1.61,2.86S29.9-2.13,29.9-3.69c0-1.5.19-2.82,1.62-2.82S33.13-5.19,33.13-3.69ZM35.17-.08h4.81V-.84H36.54c1.29-1.05,3.23-2.58,3.23-4.38a2.034,2.034,0,0,0-2.24-2.14A2.215,2.215,0,0,0,35.2-5.02h.88a1.429,1.429,0,0,1,1.46-1.56,1.221,1.221,0,0,1,1.33,1.4c0,1.48-1.8,2.92-3.7,4.45ZM40.94,1.7h.9L44.58-9.42h-.91Zm4.85-5.39c0,2.1.52,3.69,2.52,3.69s2.51-1.59,2.51-3.69c0-2.07-.52-3.65-2.51-3.65S45.79-5.76,45.79-3.69Zm4.13,0c0,1.56-.19,2.86-1.61,2.86s-1.62-1.3-1.62-2.86c0-1.5.19-2.82,1.62-2.82S49.92-5.19,49.92-3.69ZM51.96-.08h4.81V-.84H53.33c1.29-1.05,3.23-2.58,3.23-4.38a2.034,2.034,0,0,0-2.24-2.14,2.215,2.215,0,0,0-2.33,2.34h.88a1.429,1.429,0,0,1,1.46-1.56,1.221,1.221,0,0,1,1.33,1.4c0,1.48-1.8,2.92-3.7,4.45ZM57.73,1.7h.9L61.37-9.42h-.91ZM62.47-.08h4.81V-.84H63.84c1.29-1.05,3.23-2.58,3.23-4.38a2.034,2.034,0,0,0-2.24-2.14A2.215,2.215,0,0,0,62.5-5.02h.88a1.429,1.429,0,0,1,1.46-1.56,1.221,1.221,0,0,1,1.33,1.4c0,1.48-1.8,2.92-3.7,4.45Zm5.86-3.61c0,2.1.52,3.69,2.52,3.69s2.51-1.59,2.51-3.69c0-2.07-.52-3.65-2.51-3.65S68.33-5.76,68.33-3.69Zm4.13,0c0,1.56-.19,2.86-1.61,2.86s-1.62-1.3-1.62-2.86c0-1.5.19-2.82,1.62-2.82S72.46-5.19,72.46-3.69ZM74.5-.08h4.81V-.84H75.87c1.29-1.05,3.23-2.58,3.23-4.38a2.034,2.034,0,0,0-2.24-2.14,2.215,2.215,0,0,0-2.33,2.34h.88a1.429,1.429,0,0,1,1.46-1.56,1.221,1.221,0,0,1,1.33,1.4c0,1.48-1.8,2.92-3.7,4.45Zm5.75,0h4.81V-.84H81.62c1.29-1.05,3.23-2.58,3.23-4.38a2.034,2.034,0,0,0-2.24-2.14,2.215,2.215,0,0,0-2.33,2.34h.88a1.429,1.429,0,0,1,1.46-1.56,1.221,1.221,0,0,1,1.33,1.4c0,1.48-1.8,2.92-3.7,4.45Z" transform="translate(0 26.571)"/>
      </g>
      <g id="Group_46472" data-name="Group 46472" transform="translate(770.892 213.307)">
        <g id="Group_43285" data-name="Group 43285" transform="translate(0.664 1.693)">
          <path id="Path_53051" data-name="Path 53051" d="M.42-4.2A4.13,4.13,0,0,0,4.668.072,3.933,3.933,0,0,0,8.6-2.64H6.672A2.1,2.1,0,0,1,4.656-1.428,2.51,2.51,0,0,1,2.148-4.2,2.5,2.5,0,0,1,4.656-6.972a2.112,2.112,0,0,1,2.016,1.2H8.6A3.947,3.947,0,0,0,4.668-8.484,4.14,4.14,0,0,0,.42-4.2Zm16.044.876a3.285,3.285,0,0,0-3.42-3.432,3.285,3.285,0,0,0-3.42,3.432A3.254,3.254,0,0,0,13,.108,3.324,3.324,0,0,0,16.464-3.324Zm-5.136,0A1.73,1.73,0,0,1,13.02-5.292a1.747,1.747,0,0,1,1.716,1.968A1.77,1.77,0,0,1,13-1.356C12.1-1.356,11.328-2,11.328-3.324ZM27,0h1.68V-3.9a2.586,2.586,0,0,0-2.724-2.844,2.632,2.632,0,0,0-2.28,1.272,2.545,2.545,0,0,0-2.34-1.272,2.421,2.421,0,0,0-1.956.9v-.8H17.7V0h1.68V-3.672a1.42,1.42,0,0,1,1.5-1.608,1.414,1.414,0,0,1,1.476,1.608V0h1.68V-3.672A1.417,1.417,0,0,1,25.524-5.28,1.414,1.414,0,0,1,27-3.672Zm4.956-5.688v-.96h-1.68V3.168h1.68V-.948a2.714,2.714,0,0,0,2.2,1.056,3.149,3.149,0,0,0,3.036-3.456,3.106,3.106,0,0,0-3.036-3.408A2.656,2.656,0,0,0,31.956-5.688Zm3.516,2.34a1.818,1.818,0,0,1-1.764,1.98,1.8,1.8,0,0,1-1.752-1.956A1.8,1.8,0,0,1,33.708-5.28,1.775,1.775,0,0,1,35.472-3.348ZM38.412,0h1.68V-8.88h-1.68ZM44.6-5.376a1.477,1.477,0,0,1,1.584,1.428H43.032A1.544,1.544,0,0,1,44.6-5.376ZM47.76-2.088H45.948a1.37,1.37,0,0,1-1.332.8,1.555,1.555,0,0,1-1.6-1.536h4.86a3.926,3.926,0,0,0,.048-.648,3.121,3.121,0,0,0-3.276-3.288,3.194,3.194,0,0,0-3.336,3.432A3.22,3.22,0,0,0,44.652.108,3.09,3.09,0,0,0,47.76-2.088Zm1.656.024C49.416-.54,50.268,0,51.54,0H52.6V-1.416h-.78c-.528,0-.708-.192-.708-.636V-5.268H52.6v-1.38H51.108V-8.292H49.416v1.644h-.792v1.38h.792Zm7.248-3.312a1.477,1.477,0,0,1,1.584,1.428H55.092A1.544,1.544,0,0,1,56.664-5.376ZM59.82-2.088H58.008a1.37,1.37,0,0,1-1.332.8,1.555,1.555,0,0,1-1.6-1.536h4.86a3.926,3.926,0,0,0,.048-.648,3.121,3.121,0,0,0-3.276-3.288,3.194,3.194,0,0,0-3.336,3.432A3.22,3.22,0,0,0,56.712.108,3.09,3.09,0,0,0,59.82-2.088ZM64.068,0h1.68V-3.54h2.676V-4.872H65.748V-7.02H69.24V-8.376H64.068Zm8.04-3.312c0-1.284.6-1.668,1.6-1.668h.444V-6.744a2.306,2.306,0,0,0-2.04,1.128V-6.648h-1.68V0h1.68Zm6.024-2.064a1.477,1.477,0,0,1,1.584,1.428H76.56A1.544,1.544,0,0,1,78.132-5.376Zm3.156,3.288H79.476a1.37,1.37,0,0,1-1.332.8,1.555,1.555,0,0,1-1.6-1.536h4.86a3.926,3.926,0,0,0,.048-.648A3.121,3.121,0,0,0,78.18-6.756a3.194,3.194,0,0,0-3.336,3.432A3.22,3.22,0,0,0,78.18.108,3.09,3.09,0,0,0,81.288-2.088ZM82.68,0h1.68V-6.648H82.68Zm.852-7.44a.992.992,0,0,0,1.032-.984.992.992,0,0,0-1.032-.984.985.985,0,0,0-1.032.984A.985.985,0,0,0,83.532-7.44Zm2.052,4.092A3.156,3.156,0,0,0,88.62.108a2.622,2.622,0,0,0,2.2-1.092V.048A1.717,1.717,0,0,1,87.54.816H85.872c.168,1.524,1.476,2.46,3.348,2.46A3.038,3.038,0,0,0,92.508.048v-6.7H90.816V-5.7a2.6,2.6,0,0,0-2.2-1.056A3.113,3.113,0,0,0,85.584-3.348Zm5.232.024a1.79,1.79,0,0,1-1.764,1.956A1.817,1.817,0,0,1,87.3-3.348,1.773,1.773,0,0,1,89.052-5.28,1.79,1.79,0,0,1,90.816-3.324ZM94.152,0h1.68V-3.672a1.443,1.443,0,0,1,1.5-1.644,1.438,1.438,0,0,1,1.476,1.644V0h1.68V-3.9A2.538,2.538,0,0,0,97.9-6.744a2.555,2.555,0,0,0-2.064.924V-8.88h-1.68Zm8.2-2.064C102.348-.54,103.2,0,104.472,0h1.056V-1.416h-.78c-.528,0-.708-.192-.708-.636V-5.268h1.488v-1.38H104.04V-8.292h-1.692v1.644h-.792v1.38h.792Z" transform="translate(40.095 20.973)"/>
          <g id="Group_43284" data-name="Group 43284" transform="translate(0 -0.027)">
            <rect id="Rectangle_11124" data-name="Rectangle 11124" width="33.061" height="33.061" rx="4" fill="#3e5477"/>
            <g id="InvoiceOwl_Blog_New_Size_14_" data-name="InvoiceOwl Blog New Size  (14)" transform="translate(-168 -50.403)">
              <path id="Path_53039" data-name="Path 53039" d="M206.4,54.137a2.616,2.616,0,1,0,.786,2.044c-.343-.1-.708-.193-1.087-.275a17.7,17.7,0,0,1-2.381-.68,19.351,19.351,0,0,0,2.083.347,17.43,17.43,0,0,0,2.519.131c.57-.022.926-.1.941-.228.024-.208-.861-.491-2.127-.71l-.284-.046A2.623,2.623,0,0,0,206.4,54.137Zm0,0" transform="translate(-23.463 0)" fill="#fff"/>
              <g id="Group_46749" data-name="Group 46749" transform="translate(173 59.039)" clip-path="url(#clip-path-4)">
                <path id="Path_53040" data-name="Path 53040" d="M175.988,103.8A11.11,11.11,0,0,0,179.4,99.83a8.754,8.754,0,0,0,.889-3.51,14.826,14.826,0,0,1,2.824,6.611,1.448,1.448,0,0,0,1.417,1.163,1.4,1.4,0,0,0,.288-.029,1.449,1.449,0,0,0,1.133-1.707c-.893-4.45-2.619-7.167-4.21-8.744a9.7,9.7,0,0,0-1.564-1.273,8.782,8.782,0,0,1,.09-.893,5.713,5.713,0,0,1-.814-.975,5.56,5.56,0,0,1-.9-3.067,5.835,5.835,0,0,1,.307-1.9v0l0-.01a1.157,1.157,0,0,1,2.139-.065,1.15,1.15,0,0,1,.027.887l-.013.042c-.01.034-.032.111-.057.222a3.906,3.906,0,0,0-.09.829,3.378,3.378,0,0,0,.173,1.076c.2-.6.41-1.157.582-1.651.495-1.095.263-2.525-.681-2.911a2.649,2.649,0,0,0-3.258,1.537,12.823,12.823,0,0,0-1.573,6.278,2.385,2.385,0,0,0,.741,1.793,1.461,1.461,0,0,0,.193.324,6.517,6.517,0,0,1,.356,2.106,5.851,5.851,0,0,1-.6,2.6,8.226,8.226,0,0,1-2.554,2.929,1.449,1.449,0,1,0,1.737,2.319Zm0,0" transform="translate(-173.544 -83.626)" fill="#fff"/>
              </g>
              <path id="Path_53042" data-name="Path 53042" d="M217.125,130.608a.347.347,0,0,0,.481.1l.1-.063q-.324-.143-.626-.3A.35.35,0,0,0,217.125,130.608Zm0,0" transform="translate(-35.677 -62.289)" fill="#fff"/>
              <g id="Group_46750" data-name="Group 46750" transform="translate(192.995 74.273)" clip-path="url(#clip-path-5)">
                <path id="Path_53043" data-name="Path 53043" d="M281.495,164.173a.348.348,0,0,0-.378-.584l-2.941,1.912a2.105,2.105,0,0,1,.381.583Zm0,0" transform="translate(-278.143 -163.431)" fill="#fff"/>
              </g>
              <path id="Path_53045" data-name="Path 53045" d="M229.115,121.314l.052-.034,5.975,9.22a2.081,2.081,0,0,1,.581-.382l-6.163-9.509a.347.347,0,0,0-.481-.1l-.428.279A1.154,1.154,0,0,1,229.115,121.314Zm0,0" transform="translate(-45.054 -54.28)" fill="#fff"/>
              <path id="Path_53046" data-name="Path 53046" d="M263.038,149.183l2.8-1.822-2.27-3.5-3.5,2.273,1.8,2.771c.04,0,.08-.007.12-.007A2.067,2.067,0,0,1,263.038,149.183Zm0,0" transform="translate(-70.493 -73.231)" fill="#fff"/>
              <path id="Path_53047" data-name="Path 53047" d="M246.5,125.187l3.5-2.273,2.27,3.5-3.5,2.273Zm0,0" transform="translate(-59.504 -56.274)" fill="#fff"/>
              <path id="Path_53048" data-name="Path 53048" d="M202.487,91.625c.024-.106.047-.189.062-.24l.017-.054h0a.926.926,0,1,0-1.732-.657,5.548,5.548,0,0,0-.3,1.833,5.3,5.3,0,0,0,.862,2.94,6.98,6.98,0,0,0,3.577,2.612.928.928,0,0,0,.638-1.742,5.143,5.143,0,0,1-2.668-1.891,3.438,3.438,0,0,1-.556-1.919A4.083,4.083,0,0,1,202.487,91.625Zm0,0" transform="translate(-22.295 -29.687)" fill="#fff"/>
              <g id="Group_46751" data-name="Group 46751" transform="translate(189.757 75.987)" clip-path="url(#clip-path-6)">
                <path id="Path_53049" data-name="Path 53049" d="M261.012,173.881a1.737,1.737,0,1,0,1.737-1.74A1.738,1.738,0,0,0,261.012,173.881Zm1.737-.812a.812.812,0,1,1-.811.812A.813.813,0,0,1,262.749,173.069Zm0,0" transform="translate(-261.01 -172.114)" fill="#fff"/>
              </g>
            </g>
          </g>
        </g>
      </g>
      <g id="Group_46477" data-name="Group 46477" transform="translate(771.555 330)">
        <path id="Path_53054" data-name="Path 53054" d="M4.67-1.99c0,.67-.47,1.06-1.24,1.06H1.89V-3.1h1.5A1.128,1.128,0,0,1,4.67-1.99ZM4.49-5.02c0,.64-.45.99-1.19.99H1.89V-6.02H3.3C4.04-6.02,4.49-5.65,4.49-5.02ZM5.81-1.87a1.729,1.729,0,0,0-1.34-1.7A1.626,1.626,0,0,0,5.65-5.16c0-.98-.78-1.79-2.25-1.79H.75V0H3.53C4.95,0,5.81-.81,5.81-1.87ZM7.05,0H8.19V-5.51H7.05Zm.58-6.24a.719.719,0,0,0,.72-.73.719.719,0,0,0-.72-.73.721.721,0,0,0-.73.73A.721.721,0,0,0,7.63-6.24ZM9.69,0h1.14V-7.4H9.69Zm2.64,0h1.14V-7.4H12.33Zm5.38,0h1.15V-4.58h1.02v-.93H18.86V-5.9c0-.63.24-.87.94-.87v-.95c-1.44,0-2.09.55-2.09,1.82v.39h-.65v.93h.65Zm4.32-2.9c0-1.17.52-1.52,1.36-1.52h.29V-5.6a1.8,1.8,0,0,0-1.65.89v-.8H20.89V0h1.14Zm7.85.14A2.717,2.717,0,0,0,27.07-5.6a2.717,2.717,0,0,0-2.81,2.84A2.686,2.686,0,0,0,27.02.09,2.76,2.76,0,0,0,29.88-2.76Zm-4.46,0a1.641,1.641,0,0,1,1.63-1.85,1.667,1.667,0,0,1,1.66,1.85A1.7,1.7,0,0,1,27.02-.9,1.63,1.63,0,0,1,25.42-2.76ZM38.82,0h1.13V-3.25A2.153,2.153,0,0,0,37.68-5.6a2.157,2.157,0,0,0-1.92,1.09A2.125,2.125,0,0,0,33.78-5.6a2.1,2.1,0,0,0-1.63.72v-.63H31.01V0h1.14V-3.08a1.336,1.336,0,0,1,1.39-1.53c.83,0,1.38.52,1.38,1.53V0h1.13V-3.08a1.336,1.336,0,0,1,1.39-1.53c.83,0,1.38.52,1.38,1.53Zm3.76-.66a.719.719,0,0,0-.72-.73.721.721,0,0,0-.73.73.721.721,0,0,0,.73.73A.719.719,0,0,0,42.58-.66Zm0-4.2a.719.719,0,0,0-.72-.73.721.721,0,0,0-.73.73.721.721,0,0,0,.73.73A.719.719,0,0,0,42.58-4.86Z" transform="translate(0.048 8)"/>
        <path id="Path_53055" data-name="Path 53055" d="M.387-3.141A3.077,3.077,0,0,0,3.519.054,2.95,2.95,0,0,0,6.426-1.827H5.445A1.98,1.98,0,0,1,3.519-.657a2.275,2.275,0,0,1-2.3-2.484,2.278,2.278,0,0,1,2.3-2.493A1.974,1.974,0,0,1,5.445-4.455h.981a2.953,2.953,0,0,0-2.907-1.9A3.093,3.093,0,0,0,.387-3.141Zm11.844.666A2.407,2.407,0,0,0,9.738-5.013,2.412,2.412,0,0,0,7.245-2.475,2.394,2.394,0,0,0,9.7.081,2.445,2.445,0,0,0,12.231-2.475Zm-4.149,0A1.635,1.635,0,0,1,9.729-4.3a1.657,1.657,0,0,1,1.665,1.827A1.674,1.674,0,0,1,9.7-.639,1.624,1.624,0,0,1,8.082-2.475ZM20.43,0h.81V-2.907a1.909,1.909,0,0,0-2-2.115,1.826,1.826,0,0,0-1.746,1.1,1.856,1.856,0,0,0-1.809-1.1,1.783,1.783,0,0,0-1.557.8v-.711h-.819V0h.819V-2.718c0-1.062.567-1.593,1.4-1.593.81,0,1.35.513,1.35,1.521V0h.81V-2.718c0-1.062.567-1.593,1.4-1.593.81,0,1.35.513,1.35,1.521ZM23.4-4.023v-.909h-.819V2.34H23.4V-.909a2.133,2.133,0,0,0,1.845.99,2.374,2.374,0,0,0,2.34-2.565,2.337,2.337,0,0,0-2.34-2.529A2.083,2.083,0,0,0,23.4-4.023Zm3.348,1.539A1.691,1.691,0,0,1,25.074-.639,1.693,1.693,0,0,1,23.4-2.475,1.7,1.7,0,0,1,25.074-4.3,1.667,1.667,0,0,1,26.748-2.484Zm1.611,0A2.372,2.372,0,0,0,30.69.081a2.06,2.06,0,0,0,1.845-1V0h.828V-4.932h-.828v.9A2.047,2.047,0,0,0,30.7-5.013,2.337,2.337,0,0,0,28.359-2.484Zm4.176.009A1.688,1.688,0,0,1,30.861-.639,1.689,1.689,0,0,1,29.2-2.484,1.665,1.665,0,0,1,30.861-4.3,1.69,1.69,0,0,1,32.535-2.475ZM38.358,0h.81V-2.907a1.913,1.913,0,0,0-2.016-2.115,1.822,1.822,0,0,0-1.584.792v-.7h-.819V0h.819V-2.727c0-1.062.576-1.584,1.413-1.584s1.377.513,1.377,1.521Zm3.906-.936-1.548-4h-.909L41.8-.054l-.972,2.376h.846l2.97-7.254h-.846Zm9.711-5.346V-1.3L48.681-6.282h-.819V0h.819V-4.995L51.975,0h.819V-6.282Zm1.908,3.8A2.372,2.372,0,0,0,56.214.081a2.06,2.06,0,0,0,1.845-1V0h.828V-4.932h-.828v.9a2.047,2.047,0,0,0-1.836-.981A2.337,2.337,0,0,0,53.883-2.484Zm4.176.009A1.688,1.688,0,0,1,56.385-.639,1.689,1.689,0,0,1,54.72-2.484,1.665,1.665,0,0,1,56.385-4.3,1.69,1.69,0,0,1,58.059-2.475ZM67.392,0h.81V-2.907a1.909,1.909,0,0,0-2-2.115,1.826,1.826,0,0,0-1.746,1.1,1.856,1.856,0,0,0-1.809-1.1,1.783,1.783,0,0,0-1.557.8v-.711h-.819V0h.819V-2.718c0-1.062.567-1.593,1.4-1.593.81,0,1.35.513,1.35,1.521V0h.81V-2.718c0-1.062.567-1.593,1.4-1.593.81,0,1.35.513,1.35,1.521ZM71.64-4.32A1.447,1.447,0,0,1,73.2-2.826H70.083A1.527,1.527,0,0,1,71.64-4.32Zm2.3,2.8h-.882a1.355,1.355,0,0,1-1.386.909,1.55,1.55,0,0,1-1.6-1.548h3.942a4.44,4.44,0,0,0,.027-.5,2.261,2.261,0,0,0-2.367-2.358,2.347,2.347,0,0,0-2.439,2.538A2.376,2.376,0,0,0,71.676.081,2.218,2.218,0,0,0,73.944-1.521Z" transform="translate(0 24.294)"/>
        <path id="Path_53056" data-name="Path 53056" d="M4.77-1.71c0-2.322-3.384-1.314-3.384-2.934,0-.675.531-1.026,1.206-1.008a1.136,1.136,0,0,1,1.215.909h.9A1.876,1.876,0,0,0,2.628-6.354c-1.242,0-2.079.7-2.079,1.737,0,2.331,3.393,1.251,3.393,2.943,0,.594-.468,1.044-1.26,1.044a1.162,1.162,0,0,1-1.3-1.044H.513C.531-.639,1.422.063,2.682.063A1.879,1.879,0,0,0,4.77-1.71Zm1.386.36C6.156-.36,6.651,0,7.524,0h.738V-.693h-.6c-.5,0-.684-.171-.684-.657V-4.257H8.262v-.675H6.975V-6.174H6.156v1.242H5.517v.675h.639Zm3.915-1.332c0-1.143.594-1.494,1.377-1.494h.216v-.846a1.661,1.661,0,0,0-1.593.891v-.8H9.252V0h.819ZM14.706-4.32a1.447,1.447,0,0,1,1.557,1.494H13.149A1.527,1.527,0,0,1,14.706-4.32Zm2.3,2.8h-.882a1.355,1.355,0,0,1-1.386.909,1.55,1.55,0,0,1-1.6-1.548h3.942a4.44,4.44,0,0,0,.027-.5,2.261,2.261,0,0,0-2.367-2.358A2.347,2.347,0,0,0,12.3-2.475,2.376,2.376,0,0,0,14.742.081,2.218,2.218,0,0,0,17.01-1.521Zm3.276-2.8a1.447,1.447,0,0,1,1.557,1.494H18.729A1.527,1.527,0,0,1,20.286-4.32Zm2.3,2.8h-.882a1.355,1.355,0,0,1-1.386.909,1.55,1.55,0,0,1-1.6-1.548h3.942a4.44,4.44,0,0,0,.027-.5,2.261,2.261,0,0,0-2.367-2.358,2.347,2.347,0,0,0-2.439,2.538A2.376,2.376,0,0,0,20.322.081,2.218,2.218,0,0,0,22.59-1.521Zm1.359.171c0,.99.5,1.35,1.368,1.35h.738V-.693h-.6c-.5,0-.684-.171-.684-.657V-4.257h1.287v-.675H24.768V-6.174h-.819v1.242H23.31v.675h.639ZM33.66,0h.864L32.265-6.237H31.32L29.052,0h.864l.5-1.395h2.736Zm-.738-2.061H30.654l1.134-3.168Zm2.286-.423A2.374,2.374,0,0,0,37.548.081,2.026,2.026,0,0,0,39.384-.927V0h.828V-6.66h-.828v2.61a2.151,2.151,0,0,0-1.827-.963A2.339,2.339,0,0,0,35.208-2.484Zm4.176.009A1.688,1.688,0,0,1,37.71-.639a1.689,1.689,0,0,1-1.665-1.845A1.665,1.665,0,0,1,37.71-4.3,1.69,1.69,0,0,1,39.384-2.475Zm1.908-.009A2.374,2.374,0,0,0,43.632.081,2.026,2.026,0,0,0,45.468-.927V0H46.3V-6.66h-.828v2.61a2.151,2.151,0,0,0-1.827-.963A2.339,2.339,0,0,0,41.292-2.484Zm4.176.009A1.688,1.688,0,0,1,43.794-.639a1.689,1.689,0,0,1-1.665-1.845A1.665,1.665,0,0,1,43.794-4.3,1.69,1.69,0,0,1,45.468-2.475ZM48.5-2.682c0-1.143.594-1.494,1.377-1.494h.216v-.846a1.661,1.661,0,0,0-1.593.891v-.8h-.819V0H48.5ZM53.136-4.32a1.447,1.447,0,0,1,1.557,1.494H51.579A1.527,1.527,0,0,1,53.136-4.32Zm2.3,2.8h-.882a1.355,1.355,0,0,1-1.386.909,1.55,1.55,0,0,1-1.6-1.548h3.942a4.439,4.439,0,0,0,.027-.5,2.261,2.261,0,0,0-2.367-2.358,2.347,2.347,0,0,0-2.439,2.538A2.376,2.376,0,0,0,53.172.081,2.218,2.218,0,0,0,55.44-1.521Zm4.725.18c-.036-1.764-2.9-1.125-2.9-2.3,0-.4.36-.684.963-.684a.948.948,0,0,1,1.071.855h.819a1.655,1.655,0,0,0-1.863-1.548c-1.1,0-1.809.621-1.809,1.377,0,1.836,2.916,1.2,2.916,2.3,0,.405-.36.729-1.008.729-.693,0-1.116-.36-1.161-.837h-.846c.054.9.864,1.53,2.016,1.53C59.454.081,60.165-.531,60.165-1.341Zm4.7,0c-.036-1.764-2.9-1.125-2.9-2.3,0-.4.36-.684.963-.684A.948.948,0,0,1,64-3.465h.819a1.655,1.655,0,0,0-1.863-1.548c-1.1,0-1.809.621-1.809,1.377,0,1.836,2.916,1.2,2.916,2.3,0,.405-.36.729-1.008.729-.693,0-1.116-.36-1.161-.837h-.846c.054.9.864,1.53,2.016,1.53C64.152.081,64.863-.531,64.863-1.341ZM65.3,1.287h.549l1.008-2.421h-.9Zm8.631-7.56H69.957v.711h3.006L69.921-.648V0h4.032V-.711h-3.06l3.042-4.914ZM75.069,0h.819V-4.932h-.819Zm.423-5.733a.546.546,0,0,0,.54-.558.546.546,0,0,0-.54-.558.549.549,0,0,0-.558.558A.549.549,0,0,0,75.492-5.733Zm2.61,1.71v-.909h-.819V2.34H78.1V-.909a2.133,2.133,0,0,0,1.845.99,2.374,2.374,0,0,0,2.34-2.565,2.337,2.337,0,0,0-2.34-2.529A2.083,2.083,0,0,0,78.1-4.023ZM81.45-2.484A1.691,1.691,0,0,1,79.776-.639,1.693,1.693,0,0,1,78.1-2.475,1.7,1.7,0,0,1,79.776-4.3,1.667,1.667,0,0,1,81.45-2.484Zm4.014-.657A3.077,3.077,0,0,0,88.6.054,2.95,2.95,0,0,0,91.5-1.827h-.981A1.98,1.98,0,0,1,88.6-.657,2.275,2.275,0,0,1,86.3-3.141,2.278,2.278,0,0,1,88.6-5.634a1.974,1.974,0,0,1,1.926,1.179H91.5a2.953,2.953,0,0,0-2.907-1.9A3.093,3.093,0,0,0,85.464-3.141ZM97.4-2.475A2.407,2.407,0,0,0,94.9-5.013a2.412,2.412,0,0,0-2.493,2.538A2.394,2.394,0,0,0,94.869.081,2.445,2.445,0,0,0,97.4-2.475Zm-4.149,0A1.635,1.635,0,0,1,94.9-4.3a1.657,1.657,0,0,1,1.665,1.827A1.674,1.674,0,0,1,94.869-.639,1.624,1.624,0,0,1,93.249-2.475Zm4.923-.009a2.374,2.374,0,0,0,2.34,2.565,2.026,2.026,0,0,0,1.836-1.008V0h.828V-6.66h-.828v2.61a2.151,2.151,0,0,0-1.827-.963A2.339,2.339,0,0,0,98.172-2.484Zm4.176.009a1.688,1.688,0,0,1-1.674,1.836,1.689,1.689,0,0,1-1.665-1.845A1.665,1.665,0,0,1,100.674-4.3,1.69,1.69,0,0,1,102.348-2.475Zm4.311-1.845a1.447,1.447,0,0,1,1.557,1.494H105.1A1.527,1.527,0,0,1,106.659-4.32Zm2.3,2.8h-.882a1.355,1.355,0,0,1-1.386.909,1.55,1.55,0,0,1-1.6-1.548h3.942a4.44,4.44,0,0,0,.027-.5,2.261,2.261,0,0,0-2.367-2.358,2.347,2.347,0,0,0-2.439,2.538A2.376,2.376,0,0,0,106.695.081,2.218,2.218,0,0,0,108.963-1.521Z" transform="translate(0 41.913)"/>
        <path id="Path_53057" data-name="Path 53057" d="M1.512-3.294V-5.6H2.718c.936,0,1.332.432,1.332,1.161,0,.7-.4,1.143-1.332,1.143ZM4.887-4.437c0-1.026-.693-1.836-2.169-1.836H.693V0h.819V-2.619H2.718C4.275-2.619,4.887-3.483,4.887-4.437ZM5.9,0h.819V-2.727c0-1.062.576-1.584,1.413-1.584S9.513-3.8,9.513-2.79V0h.81V-2.907A1.9,1.9,0,0,0,8.352-5.022a1.856,1.856,0,0,0-1.629.8V-6.66H5.9Zm10.44-2.475a2.407,2.407,0,0,0-2.493-2.538,2.412,2.412,0,0,0-2.493,2.538A2.394,2.394,0,0,0,13.815.081,2.445,2.445,0,0,0,16.344-2.475Zm-4.149,0A1.635,1.635,0,0,1,13.842-4.3a1.657,1.657,0,0,1,1.665,1.827A1.674,1.674,0,0,1,13.815-.639,1.624,1.624,0,0,1,12.195-2.475ZM21.033,0h.81V-2.907a1.913,1.913,0,0,0-2.016-2.115,1.822,1.822,0,0,0-1.584.792v-.7h-.819V0h.819V-2.727c0-1.062.576-1.584,1.413-1.584s1.377.513,1.377,1.521Zm4.248-4.32a1.447,1.447,0,0,1,1.557,1.494H23.724A1.527,1.527,0,0,1,25.281-4.32Zm2.3,2.8H26.7a1.355,1.355,0,0,1-1.386.909,1.55,1.55,0,0,1-1.6-1.548h3.942a4.44,4.44,0,0,0,.027-.5,2.261,2.261,0,0,0-2.367-2.358,2.347,2.347,0,0,0-2.439,2.538A2.376,2.376,0,0,0,25.317.081,2.218,2.218,0,0,0,27.585-1.521ZM35.28-6.282V-1.3L31.986-6.282h-.819V0h.819V-4.995L35.28,0H36.1V-6.282Zm6.588,1.35h-.819v2.709c0,1.062-.567,1.584-1.413,1.584a1.323,1.323,0,0,1-1.377-1.512V-4.932h-.81v2.889A1.924,1.924,0,0,0,39.474.072a1.813,1.813,0,0,0,1.575-.8V0h.819ZM50.373,0h.81V-2.907a1.909,1.909,0,0,0-2-2.115,1.826,1.826,0,0,0-1.746,1.1,1.856,1.856,0,0,0-1.809-1.1,1.783,1.783,0,0,0-1.557.8v-.711h-.819V0h.819V-2.718c0-1.062.567-1.593,1.4-1.593.81,0,1.35.513,1.35,1.521V0h.81V-2.718c0-1.062.567-1.593,1.4-1.593.81,0,1.35.513,1.35,1.521Zm2.97-4.014V-6.66h-.819V0h.819V-.909a2.058,2.058,0,0,0,1.845.99,2.374,2.374,0,0,0,2.34-2.565,2.332,2.332,0,0,0-2.34-2.529A2.089,2.089,0,0,0,53.343-4.014Zm3.348,1.53A1.691,1.691,0,0,1,55.017-.639a1.693,1.693,0,0,1-1.674-1.836A1.7,1.7,0,0,1,55.017-4.3,1.667,1.667,0,0,1,56.691-2.484ZM60.7-4.32a1.447,1.447,0,0,1,1.557,1.494H59.148A1.527,1.527,0,0,1,60.7-4.32Zm2.3,2.8h-.882a1.355,1.355,0,0,1-1.386.909,1.55,1.55,0,0,1-1.6-1.548h3.942a4.439,4.439,0,0,0,.027-.5,2.261,2.261,0,0,0-2.367-2.358A2.347,2.347,0,0,0,58.3-2.475,2.376,2.376,0,0,0,60.741.081,2.218,2.218,0,0,0,63.009-1.521Zm2-1.161c0-1.143.594-1.494,1.377-1.494H66.6v-.846a1.661,1.661,0,0,0-1.593.891v-.8h-.819V0h.819Z" transform="translate(0 59.533)"/>
      </g>
      <g id="Group_46476" data-name="Group 46476" transform="translate(1095.231 329)">
        <path id="Path_53060" data-name="Path 53060" d="M4.77,7.29c0-2.322-3.384-1.314-3.384-2.934,0-.675.531-1.026,1.206-1.008a1.136,1.136,0,0,1,1.215.909h.9A1.876,1.876,0,0,0,2.628,2.646c-1.242,0-2.079.7-2.079,1.737,0,2.331,3.393,1.251,3.393,2.943,0,.594-.468,1.044-1.26,1.044a1.162,1.162,0,0,1-1.3-1.044H.513c.018,1.035.909,1.737,2.169,1.737A1.879,1.879,0,0,0,4.77,7.29Zm1.386.36c0,.99.495,1.35,1.368,1.35h.738V8.307h-.6c-.5,0-.684-.171-.684-.657V4.743H8.262V4.068H6.975V2.826H6.156V4.068H5.517v.675h.639Zm3.915-1.332c0-1.143.594-1.494,1.377-1.494h.216V3.978a1.661,1.661,0,0,0-1.593.891v-.8H9.252V9h.819ZM14.706,4.68a1.447,1.447,0,0,1,1.557,1.494H13.149A1.527,1.527,0,0,1,14.706,4.68Zm2.3,2.8h-.882a1.355,1.355,0,0,1-1.386.909,1.55,1.55,0,0,1-1.6-1.548h3.942a4.44,4.44,0,0,0,.027-.5,2.261,2.261,0,0,0-2.367-2.358A2.347,2.347,0,0,0,12.3,6.525a2.376,2.376,0,0,0,2.439,2.556A2.218,2.218,0,0,0,17.01,7.479Zm3.276-2.8a1.447,1.447,0,0,1,1.557,1.494H18.729A1.527,1.527,0,0,1,20.286,4.68Zm2.3,2.8h-.882a1.355,1.355,0,0,1-1.386.909,1.55,1.55,0,0,1-1.6-1.548h3.942a4.44,4.44,0,0,0,.027-.5,2.261,2.261,0,0,0-2.367-2.358,2.347,2.347,0,0,0-2.439,2.538,2.376,2.376,0,0,0,2.439,2.556A2.218,2.218,0,0,0,22.59,7.479Zm1.359.171c0,.99.5,1.35,1.368,1.35h.738V8.307h-.6c-.5,0-.684-.171-.684-.657V4.743h1.287V4.068H24.768V2.826h-.819V4.068H23.31v.675h.639ZM33.66,9h.864L32.265,2.763H31.32L29.052,9h.864l.5-1.395h2.736Zm-.738-2.061H30.654l1.134-3.168Zm2.286-.423a2.374,2.374,0,0,0,2.34,2.565,2.026,2.026,0,0,0,1.836-1.008V9h.828V2.34h-.828V4.95a2.151,2.151,0,0,0-1.827-.963A2.339,2.339,0,0,0,35.208,6.516Zm4.176.009a1.677,1.677,0,1,1-3.339-.009A1.665,1.665,0,0,1,37.71,4.7,1.69,1.69,0,0,1,39.384,6.525Zm1.908-.009a2.374,2.374,0,0,0,2.34,2.565,2.026,2.026,0,0,0,1.836-1.008V9H46.3V2.34h-.828V4.95a2.151,2.151,0,0,0-1.827-.963A2.339,2.339,0,0,0,41.292,6.516Zm4.176.009a1.677,1.677,0,1,1-3.339-.009A1.665,1.665,0,0,1,43.794,4.7,1.69,1.69,0,0,1,45.468,6.525ZM48.5,6.318c0-1.143.594-1.494,1.377-1.494h.216V3.978a1.661,1.661,0,0,0-1.593.891v-.8h-.819V9H48.5ZM53.136,4.68a1.447,1.447,0,0,1,1.557,1.494H51.579A1.527,1.527,0,0,1,53.136,4.68Zm2.3,2.8h-.882a1.355,1.355,0,0,1-1.386.909,1.55,1.55,0,0,1-1.6-1.548h3.942a4.439,4.439,0,0,0,.027-.5,2.261,2.261,0,0,0-2.367-2.358,2.347,2.347,0,0,0-2.439,2.538,2.376,2.376,0,0,0,2.439,2.556A2.218,2.218,0,0,0,55.44,7.479Zm4.725.18c-.036-1.764-2.9-1.125-2.9-2.3,0-.4.36-.684.963-.684a.948.948,0,0,1,1.071.855h.819a1.655,1.655,0,0,0-1.863-1.548c-1.1,0-1.809.621-1.809,1.377,0,1.836,2.916,1.2,2.916,2.3,0,.405-.36.729-1.008.729-.693,0-1.116-.36-1.161-.837h-.846c.054.9.864,1.53,2.016,1.53C59.454,9.081,60.165,8.469,60.165,7.659Zm4.7,0c-.036-1.764-2.9-1.125-2.9-2.3,0-.4.36-.684.963-.684A.948.948,0,0,1,64,5.535h.819a1.655,1.655,0,0,0-1.863-1.548c-1.1,0-1.809.621-1.809,1.377,0,1.836,2.916,1.2,2.916,2.3,0,.405-.36.729-1.008.729-.693,0-1.116-.36-1.161-.837h-.846c.054.9.864,1.53,2.016,1.53C64.152,9.081,64.863,8.469,64.863,7.659Zm.441,2.628h.549l1.008-2.421h-.9Zm8.631-7.56H69.957v.711h3.006L69.921,8.352V9h4.032V8.289h-3.06l3.042-4.914ZM75.069,9h.819V4.068h-.819Zm.423-5.733a.558.558,0,1,0-.558-.558A.546.546,0,0,0,75.492,3.267Zm2.61,1.71V4.068h-.819V11.34H78.1V8.091a2.133,2.133,0,0,0,1.845.99,2.374,2.374,0,0,0,2.34-2.565,2.337,2.337,0,0,0-2.34-2.529A2.083,2.083,0,0,0,78.1,4.977ZM81.45,6.516a1.682,1.682,0,1,1-3.348.009A1.7,1.7,0,0,1,79.776,4.7,1.667,1.667,0,0,1,81.45,6.516Zm4.014-.657A3.077,3.077,0,0,0,88.6,9.054,2.95,2.95,0,0,0,91.5,7.173h-.981A1.98,1.98,0,0,1,88.6,8.343,2.275,2.275,0,0,1,86.3,5.859,2.278,2.278,0,0,1,88.6,3.366a1.974,1.974,0,0,1,1.926,1.179H91.5a2.953,2.953,0,0,0-2.907-1.9A3.093,3.093,0,0,0,85.464,5.859ZM97.4,6.525a2.493,2.493,0,1,0-4.986,0,2.394,2.394,0,0,0,2.457,2.556A2.445,2.445,0,0,0,97.4,6.525Zm-4.149,0A1.635,1.635,0,0,1,94.9,4.7a1.657,1.657,0,0,1,1.665,1.827,1.674,1.674,0,0,1-1.692,1.836A1.624,1.624,0,0,1,93.249,6.525Zm4.923-.009a2.374,2.374,0,0,0,2.34,2.565,2.026,2.026,0,0,0,1.836-1.008V9h.828V2.34h-.828V4.95a2.151,2.151,0,0,0-1.827-.963A2.339,2.339,0,0,0,98.172,6.516Zm4.176.009a1.677,1.677,0,1,1-3.339-.009A1.665,1.665,0,0,1,100.674,4.7,1.69,1.69,0,0,1,102.348,6.525Zm4.311-1.845a1.447,1.447,0,0,1,1.557,1.494H105.1A1.527,1.527,0,0,1,106.659,4.68Zm2.3,2.8h-.882a1.355,1.355,0,0,1-1.386.909,1.55,1.55,0,0,1-1.6-1.548h3.942a4.44,4.44,0,0,0,.027-.5,2.261,2.261,0,0,0-2.367-2.358,2.347,2.347,0,0,0-2.439,2.538,2.376,2.376,0,0,0,2.439,2.556A2.218,2.218,0,0,0,108.963,7.479Z" transform="translate(0 33.744)"/>
        <path id="Path_53059" data-name="Path 53059" d="M.387,5.859A3.077,3.077,0,0,0,3.519,9.054,2.95,2.95,0,0,0,6.426,7.173H5.445a1.98,1.98,0,0,1-1.926,1.17,2.275,2.275,0,0,1-2.3-2.484,2.278,2.278,0,0,1,2.3-2.493A1.974,1.974,0,0,1,5.445,4.545h.981a2.953,2.953,0,0,0-2.907-1.9A3.093,3.093,0,0,0,.387,5.859ZM12.015,4.068H11.2V6.777c0,1.062-.567,1.584-1.413,1.584A1.323,1.323,0,0,1,8.406,6.849V4.068H7.6V6.957A1.924,1.924,0,0,0,9.621,9.072a1.813,1.813,0,0,0,1.575-.8V9h.819Zm4.932,3.591c-.036-1.764-2.9-1.125-2.9-2.3,0-.4.36-.684.963-.684a.948.948,0,0,1,1.071.855H16.9a1.655,1.655,0,0,0-1.863-1.548c-1.1,0-1.809.621-1.809,1.377,0,1.836,2.916,1.2,2.916,2.3,0,.405-.36.729-1.008.729-.693,0-1.116-.36-1.161-.837h-.846c.054.9.864,1.53,2.016,1.53C16.236,9.081,16.947,8.469,16.947,7.659Zm1.332-.009c0,.99.5,1.35,1.368,1.35h.738V8.307h-.6c-.5,0-.684-.171-.684-.657V4.743h1.287V4.068H19.1V2.826h-.819V4.068H17.64v.675h.639Zm7.776-1.125a2.493,2.493,0,1,0-4.986,0,2.394,2.394,0,0,0,2.457,2.556A2.445,2.445,0,0,0,26.055,6.525Zm-4.149,0A1.635,1.635,0,0,1,23.553,4.7a1.657,1.657,0,0,1,1.665,1.827,1.674,1.674,0,0,1-1.692,1.836A1.624,1.624,0,0,1,21.906,6.525ZM34.254,9h.81V6.093a1.909,1.909,0,0,0-2-2.115,1.826,1.826,0,0,0-1.746,1.1,1.856,1.856,0,0,0-1.809-1.1,1.783,1.783,0,0,0-1.557.8V4.068h-.819V9h.819V6.282c0-1.062.567-1.593,1.395-1.593.81,0,1.35.513,1.35,1.521V9h.81V6.282c0-1.062.567-1.593,1.4-1.593.81,0,1.35.513,1.35,1.521ZM38.5,4.68a1.447,1.447,0,0,1,1.557,1.494H36.945A1.527,1.527,0,0,1,38.5,4.68Zm2.3,2.8h-.882a1.355,1.355,0,0,1-1.386.909,1.55,1.55,0,0,1-1.6-1.548h3.942a4.439,4.439,0,0,0,.027-.5,2.261,2.261,0,0,0-2.367-2.358A2.347,2.347,0,0,0,36.1,6.525a2.376,2.376,0,0,0,2.439,2.556A2.218,2.218,0,0,0,40.806,7.479Zm2-1.161c0-1.143.594-1.494,1.377-1.494H44.4V3.978a1.661,1.661,0,0,0-1.593.891v-.8h-.819V9H42.8Zm9.054-3.6V7.7L48.564,2.718h-.819V9h.819V4.005L51.858,9h.819V2.718Zm1.908,3.8A2.372,2.372,0,0,0,56.1,9.081a2.06,2.06,0,0,0,1.845-1V9h.828V4.068h-.828v.9a2.047,2.047,0,0,0-1.836-.981A2.337,2.337,0,0,0,53.766,6.516Zm4.176.009A1.677,1.677,0,1,1,54.6,6.516,1.665,1.665,0,0,1,56.268,4.7,1.69,1.69,0,0,1,57.942,6.525ZM67.275,9h.81V6.093a1.909,1.909,0,0,0-2-2.115,1.826,1.826,0,0,0-1.746,1.1,1.856,1.856,0,0,0-1.809-1.1,1.783,1.783,0,0,0-1.557.8V4.068h-.819V9h.819V6.282c0-1.062.567-1.593,1.4-1.593.81,0,1.35.513,1.35,1.521V9h.81V6.282c0-1.062.567-1.593,1.395-1.593.81,0,1.35.513,1.35,1.521Zm4.248-4.32A1.447,1.447,0,0,1,73.08,6.174H69.966A1.527,1.527,0,0,1,71.523,4.68Zm2.3,2.8h-.882a1.355,1.355,0,0,1-1.386.909,1.55,1.55,0,0,1-1.6-1.548H73.9a4.44,4.44,0,0,0,.027-.5,2.261,2.261,0,0,0-2.367-2.358A2.347,2.347,0,0,0,69.12,6.525a2.376,2.376,0,0,0,2.439,2.556A2.218,2.218,0,0,0,73.827,7.479Z" transform="translate(0 16.158)"/>
        <path id="Path_53061" data-name="Path 53061" d="M1.512,5.706V3.4H2.718c.936,0,1.332.432,1.332,1.161,0,.7-.4,1.143-1.332,1.143ZM4.887,4.563c0-1.026-.693-1.836-2.169-1.836H.693V9h.819V6.381H2.718C4.275,6.381,4.887,5.517,4.887,4.563ZM5.9,9h.819V6.273c0-1.062.576-1.584,1.413-1.584S9.513,5.2,9.513,6.21V9h.81V6.093A1.9,1.9,0,0,0,8.352,3.978a1.856,1.856,0,0,0-1.629.8V2.34H5.9Zm10.44-2.475a2.407,2.407,0,0,0-2.493-2.538,2.412,2.412,0,0,0-2.493,2.538,2.394,2.394,0,0,0,2.457,2.556A2.445,2.445,0,0,0,16.344,6.525Zm-4.149,0A1.635,1.635,0,0,1,13.842,4.7a1.657,1.657,0,0,1,1.665,1.827,1.674,1.674,0,0,1-1.692,1.836A1.624,1.624,0,0,1,12.195,6.525ZM21.033,9h.81V6.093a1.913,1.913,0,0,0-2.016-2.115,1.822,1.822,0,0,0-1.584.792v-.7h-.819V9h.819V6.273c0-1.062.576-1.584,1.413-1.584s1.377.513,1.377,1.521Zm4.248-4.32a1.447,1.447,0,0,1,1.557,1.494H23.724A1.527,1.527,0,0,1,25.281,4.68Zm2.3,2.8H26.7a1.355,1.355,0,0,1-1.386.909,1.55,1.55,0,0,1-1.6-1.548h3.942a4.44,4.44,0,0,0,.027-.5,2.261,2.261,0,0,0-2.367-2.358,2.347,2.347,0,0,0-2.439,2.538,2.376,2.376,0,0,0,2.439,2.556A2.218,2.218,0,0,0,27.585,7.479ZM35.28,2.718V7.7L31.986,2.718h-.819V9h.819V4.005L35.28,9H36.1V2.718Zm6.588,1.35h-.819V6.777c0,1.062-.567,1.584-1.413,1.584a1.323,1.323,0,0,1-1.377-1.512V4.068h-.81V6.957a1.924,1.924,0,0,0,2.025,2.115,1.813,1.813,0,0,0,1.575-.8V9h.819ZM50.373,9h.81V6.093a1.909,1.909,0,0,0-2-2.115,1.826,1.826,0,0,0-1.746,1.1,1.856,1.856,0,0,0-1.809-1.1,1.783,1.783,0,0,0-1.557.8V4.068h-.819V9h.819V6.282c0-1.062.567-1.593,1.4-1.593.81,0,1.35.513,1.35,1.521V9h.81V6.282c0-1.062.567-1.593,1.4-1.593.81,0,1.35.513,1.35,1.521Zm2.97-4.014V2.34h-.819V9h.819V8.091a2.058,2.058,0,0,0,1.845.99,2.374,2.374,0,0,0,2.34-2.565,2.332,2.332,0,0,0-2.34-2.529A2.089,2.089,0,0,0,53.343,4.986Zm3.348,1.53a1.682,1.682,0,1,1-3.348.009A1.7,1.7,0,0,1,55.017,4.7,1.667,1.667,0,0,1,56.691,6.516ZM60.7,4.68a1.447,1.447,0,0,1,1.557,1.494H59.148A1.527,1.527,0,0,1,60.7,4.68Zm2.3,2.8h-.882a1.355,1.355,0,0,1-1.386.909,1.55,1.55,0,0,1-1.6-1.548h3.942a4.439,4.439,0,0,0,.027-.5,2.261,2.261,0,0,0-2.367-2.358A2.347,2.347,0,0,0,58.3,6.525a2.376,2.376,0,0,0,2.439,2.556A2.218,2.218,0,0,0,63.009,7.479Zm2-1.161c0-1.143.594-1.494,1.377-1.494H66.6V3.978a1.661,1.661,0,0,0-1.593.891v-.8h-.819V9h.819Z" transform="translate(0 51.329)"/>
        <path id="Path_53058" data-name="Path 53058" d="M4.67-1.99c0,.67-.47,1.06-1.24,1.06H1.89V-3.1h1.5A1.128,1.128,0,0,1,4.67-1.99ZM4.49-5.02c0,.64-.45.99-1.19.99H1.89V-6.02H3.3C4.04-6.02,4.49-5.65,4.49-5.02ZM5.81-1.87a1.729,1.729,0,0,0-1.34-1.7A1.626,1.626,0,0,0,5.65-5.16c0-.98-.78-1.79-2.25-1.79H.75V0H3.53C4.95,0,5.81-.81,5.81-1.87ZM7.05,0H8.19V-5.51H7.05Zm.58-6.24a.719.719,0,0,0,.72-.73.719.719,0,0,0-.72-.73.721.721,0,0,0-.73.73A.721.721,0,0,0,7.63-6.24ZM9.69,0h1.14V-7.4H9.69Zm2.64,0h1.14V-7.4H12.33Zm5.42-1.53c0,1.12.61,1.53,1.59,1.53h.9V-.95h-.7c-.48,0-.64-.17-.64-.58V-4.58h1.34v-.93H18.9V-6.88H17.75v1.37H17.1v.93h.65Zm8.73-1.23A2.717,2.717,0,0,0,23.67-5.6a2.717,2.717,0,0,0-2.81,2.84A2.686,2.686,0,0,0,23.62.09,2.76,2.76,0,0,0,26.48-2.76Zm-4.46,0a1.641,1.641,0,0,1,1.63-1.85,1.667,1.667,0,0,1,1.66,1.85A1.7,1.7,0,0,1,23.62-.9,1.63,1.63,0,0,1,22.02-2.76Zm6.77,2.1a.719.719,0,0,0-.72-.73.721.721,0,0,0-.73.73.721.721,0,0,0,.73.73A.719.719,0,0,0,28.79-.66Zm0-4.2a.719.719,0,0,0-.72-.73.721.721,0,0,0-.73.73.721.721,0,0,0,.73.73A.719.719,0,0,0,28.79-4.86Z" transform="translate(0 8)"/>
      </g>
      <g id="Group_46480" data-name="Group 46480" transform="translate(739.555 721.472)" clip-path="url(#clip-path-7)">
        <path id="Path_52928" data-name="Path 52928" d="M-14.586,277.891H510.771v1.267H-14.586v-1.267" transform="translate(2.364 -277.891)" fill="#3e5477"/>
      </g>
    </g>
  </g>
</svg>
